ISO-10303-21;
HEADER;
/* Generated by software containing ST-Developer
 * from STEP Tools, Inc. (www.steptools.com) 
 */

FILE_DESCRIPTION(
/* description */ (''),
/* implementation_level */ '2;1');

FILE_NAME(
/* name */ 'Bottom case.step',
/* time_stamp */ '2026-09-12T12:47:40+05:30',
/* author */ (''),
/* organization */ (''),
/* preprocessor_version */ 'ST-DEVELOPER v20.2',
/* originating_system */ 'Autodesk Translation Framework v15.15.0.0',
/* authorisation */ '');

FILE_SCHEMA (('AUTOMOTIVE_DESIGN { 1 0 10303 214 3 1 1 }'));
ENDSEC;

DATA;
#10=MECHANICAL_DESIGN_GEOMETRIC_PRESENTATION_REPRESENTATION('',(#13),#1003);
#11=SHAPE_REPRESENTATION_RELATIONSHIP('SRR','None',#1010,#12);
#12=ADVANCED_BREP_SHAPE_REPRESENTATION('',(#14),#1002);
#13=STYLED_ITEM('',(#1019),#14);
#14=MANIFOLD_SOLID_BREP('Body1',#594);
#15=ELLIPSE('',#638,1.41421356237309,1.);
#16=ELLIPSE('',#639,1.41421356237309,1.);
#17=ELLIPSE('',#641,1.41421356237309,1.);
#18=ELLIPSE('',#642,1.4142135623731,1.);
#19=ELLIPSE('',#646,1.41421356237309,1.);
#20=ELLIPSE('',#647,1.41421356237309,1.);
#21=ELLIPSE('',#649,1.4142135623731,1.);
#22=ELLIPSE('',#651,1.41421356237309,1.);
#23=FACE_BOUND('',#91,.T.);
#24=FACE_BOUND('',#94,.T.);
#25=FACE_BOUND('',#97,.T.);
#26=FACE_BOUND('',#109,.T.);
#27=FACE_BOUND('',#116,.T.);
#28=FACE_BOUND('',#119,.T.);
#29=FACE_BOUND('',#120,.T.);
#30=FACE_BOUND('',#121,.T.);
#31=PLANE('',#611);
#32=PLANE('',#615);
#33=PLANE('',#619);
#34=PLANE('',#623);
#35=PLANE('',#624);
#36=PLANE('',#630);
#37=PLANE('',#633);
#38=PLANE('',#636);
#39=PLANE('',#653);
#40=PLANE('',#654);
#41=PLANE('',#655);
#42=PLANE('',#656);
#43=PLANE('',#657);
#44=PLANE('',#658);
#45=PLANE('',#659);
#46=PLANE('',#660);
#47=PLANE('',#661);
#48=PLANE('',#662);
#49=FACE_OUTER_BOUND('',#82,.T.);
#50=FACE_OUTER_BOUND('',#83,.T.);
#51=FACE_OUTER_BOUND('',#84,.T.);
#52=FACE_OUTER_BOUND('',#85,.T.);
#53=FACE_OUTER_BOUND('',#86,.T.);
#54=FACE_OUTER_BOUND('',#87,.T.);
#55=FACE_OUTER_BOUND('',#88,.T.);
#56=FACE_OUTER_BOUND('',#89,.T.);
#57=FACE_OUTER_BOUND('',#90,.T.);
#58=FACE_OUTER_BOUND('',#92,.T.);
#59=FACE_OUTER_BOUND('',#93,.T.);
#60=FACE_OUTER_BOUND('',#95,.T.);
#61=FACE_OUTER_BOUND('',#96,.T.);
#62=FACE_OUTER_BOUND('',#98,.T.);
#63=FACE_OUTER_BOUND('',#99,.T.);
#64=FACE_OUTER_BOUND('',#100,.T.);
#65=FACE_OUTER_BOUND('',#101,.T.);
#66=FACE_OUTER_BOUND('',#102,.T.);
#67=FACE_OUTER_BOUND('',#103,.T.);
#68=FACE_OUTER_BOUND('',#104,.T.);
#69=FACE_OUTER_BOUND('',#105,.T.);
#70=FACE_OUTER_BOUND('',#106,.T.);
#71=FACE_OUTER_BOUND('',#107,.T.);
#72=FACE_OUTER_BOUND('',#108,.T.);
#73=FACE_OUTER_BOUND('',#110,.T.);
#74=FACE_OUTER_BOUND('',#111,.T.);
#75=FACE_OUTER_BOUND('',#112,.T.);
#76=FACE_OUTER_BOUND('',#113,.T.);
#77=FACE_OUTER_BOUND('',#114,.T.);
#78=FACE_OUTER_BOUND('',#115,.T.);
#79=FACE_OUTER_BOUND('',#117,.T.);
#80=FACE_OUTER_BOUND('',#118,.T.);
#81=FACE_OUTER_BOUND('',#122,.T.);
#82=EDGE_LOOP('',(#386,#387,#388,#389));
#83=EDGE_LOOP('',(#390));
#84=EDGE_LOOP('',(#391,#392,#393,#394));
#85=EDGE_LOOP('',(#395));
#86=EDGE_LOOP('',(#396,#397,#398,#399));
#87=EDGE_LOOP('',(#400));
#88=EDGE_LOOP('',(#401,#402,#403,#404));
#89=EDGE_LOOP('',(#405,#406,#407,#408));
#90=EDGE_LOOP('',(#409,#410,#411,#412,#413,#414,#415,#416));
#91=EDGE_LOOP('',(#417,#418,#419,#420,#421));
#92=EDGE_LOOP('',(#422,#423,#424,#425));
#93=EDGE_LOOP('',(#426,#427,#428,#429));
#94=EDGE_LOOP('',(#430,#431,#432,#433));
#95=EDGE_LOOP('',(#434,#435,#436,#437));
#96=EDGE_LOOP('',(#438,#439,#440,#441));
#97=EDGE_LOOP('',(#442,#443,#444,#445));
#98=EDGE_LOOP('',(#446,#447,#448,#449));
#99=EDGE_LOOP('',(#450,#451,#452,#453));
#100=EDGE_LOOP('',(#454,#455,#456,#457));
#101=EDGE_LOOP('',(#458,#459,#460,#461));
#102=EDGE_LOOP('',(#462,#463,#464,#465));
#103=EDGE_LOOP('',(#466,#467,#468,#469));
#104=EDGE_LOOP('',(#470,#471,#472,#473));
#105=EDGE_LOOP('',(#474,#475,#476,#477));
#106=EDGE_LOOP('',(#478,#479,#480,#481));
#107=EDGE_LOOP('',(#482,#483,#484,#485));
#108=EDGE_LOOP('',(#486,#487,#488,#489));
#109=EDGE_LOOP('',(#490,#491,#492,#493));
#110=EDGE_LOOP('',(#494,#495,#496,#497));
#111=EDGE_LOOP('',(#498,#499,#500,#501));
#112=EDGE_LOOP('',(#502,#503,#504,#505));
#113=EDGE_LOOP('',(#506,#507,#508,#509));
#114=EDGE_LOOP('',(#510,#511,#512,#513));
#115=EDGE_LOOP('',(#514,#515,#516,#517));
#116=EDGE_LOOP('',(#518,#519,#520,#521));
#117=EDGE_LOOP('',(#522,#523,#524,#525,#526,#527,#528));
#118=EDGE_LOOP('',(#529,#530,#531,#532,#533,#534));
#119=EDGE_LOOP('',(#535));
#120=EDGE_LOOP('',(#536));
#121=EDGE_LOOP('',(#537));
#122=EDGE_LOOP('',(#538,#539,#540,#541,#542,#543,#544,#545));
#123=LINE('',#838,#181);
#124=LINE('',#845,#182);
#125=LINE('',#852,#183);
#126=LINE('',#860,#184);
#127=LINE('',#863,#185);
#128=LINE('',#866,#186);
#129=LINE('',#868,#187);
#130=LINE('',#869,#188);
#131=LINE('',#872,#189);
#132=LINE('',#876,#190);
#133=LINE('',#880,#191);
#134=LINE('',#884,#192);
#135=LINE('',#886,#193);
#136=LINE('',#888,#194);
#137=LINE('',#890,#195);
#138=LINE('',#891,#196);
#139=LINE('',#894,#197);
#140=LINE('',#898,#198);
#141=LINE('',#899,#199);
#142=LINE('',#902,#200);
#143=LINE('',#904,#201);
#144=LINE('',#906,#202);
#145=LINE('',#907,#203);
#146=LINE('',#910,#204);
#147=LINE('',#914,#205);
#148=LINE('',#915,#206);
#149=LINE('',#918,#207);
#150=LINE('',#920,#208);
#151=LINE('',#922,#209);
#152=LINE('',#923,#210);
#153=LINE('',#926,#211);
#154=LINE('',#929,#212);
#155=LINE('',#934,#213);
#156=LINE('',#939,#214);
#157=LINE('',#943,#215);
#158=LINE('',#945,#216);
#159=LINE('',#949,#217);
#160=LINE('',#954,#218);
#161=LINE('',#958,#219);
#162=LINE('',#961,#220);
#163=LINE('',#965,#221);
#164=LINE('',#966,#222);
#165=LINE('',#967,#223);
#166=LINE('',#971,#224);
#167=LINE('',#972,#225);
#168=LINE('',#973,#226);
#169=LINE('',#976,#227);
#170=LINE('',#977,#228);
#171=LINE('',#980,#229);
#172=LINE('',#981,#230);
#173=LINE('',#983,#231);
#174=LINE('',#986,#232);
#175=LINE('',#987,#233);
#176=LINE('',#990,#234);
#177=LINE('',#991,#235);
#178=LINE('',#995,#236);
#179=LINE('',#996,#237);
#180=LINE('',#997,#238);
#181=VECTOR('',#669,1.25);
#182=VECTOR('',#678,1.25);
#183=VECTOR('',#687,1.25);
#184=VECTOR('',#696,10.);
#185=VECTOR('',#699,10.);
#186=VECTOR('',#702,10.);
#187=VECTOR('',#703,10.);
#188=VECTOR('',#704,10.);
#189=VECTOR('',#707,10.);
#190=VECTOR('',#710,10.);
#191=VECTOR('',#713,10.);
#192=VECTOR('',#716,10.);
#193=VECTOR('',#717,10.);
#194=VECTOR('',#718,10.);
#195=VECTOR('',#719,10.);
#196=VECTOR('',#720,10.);
#197=VECTOR('',#723,10.);
#198=VECTOR('',#728,10.);
#199=VECTOR('',#729,10.);
#200=VECTOR('',#730,10.);
#201=VECTOR('',#731,10.);
#202=VECTOR('',#732,10.);
#203=VECTOR('',#733,10.);
#204=VECTOR('',#736,10.);
#205=VECTOR('',#741,10.);
#206=VECTOR('',#742,10.);
#207=VECTOR('',#743,10.);
#208=VECTOR('',#744,10.);
#209=VECTOR('',#745,10.);
#210=VECTOR('',#746,10.);
#211=VECTOR('',#749,10.);
#212=VECTOR('',#754,10.);
#213=VECTOR('',#759,10.);
#214=VECTOR('',#764,10.);
#215=VECTOR('',#771,10.);
#216=VECTOR('',#774,10.);
#217=VECTOR('',#777,10.);
#218=VECTOR('',#784,10.);
#219=VECTOR('',#789,10.);
#220=VECTOR('',#794,10.);
#221=VECTOR('',#797,10.);
#222=VECTOR('',#798,10.);
#223=VECTOR('',#799,10.);
#224=VECTOR('',#802,10.);
#225=VECTOR('',#803,10.);
#226=VECTOR('',#804,10.);
#227=VECTOR('',#807,10.);
#228=VECTOR('',#808,10.);
#229=VECTOR('',#811,10.);
#230=VECTOR('',#812,10.);
#231=VECTOR('',#815,10.);
#232=VECTOR('',#818,10.);
#233=VECTOR('',#819,10.);
#234=VECTOR('',#822,10.);
#235=VECTOR('',#823,10.);
#236=VECTOR('',#826,10.);
#237=VECTOR('',#827,10.);
#238=VECTOR('',#828,10.);
#239=CIRCLE('',#609,1.25);
#240=CIRCLE('',#610,1.25);
#241=CIRCLE('',#613,1.25);
#242=CIRCLE('',#614,1.25);
#243=CIRCLE('',#617,1.25);
#244=CIRCLE('',#618,1.25);
#245=CIRCLE('',#621,2.5);
#246=CIRCLE('',#622,2.5);
#247=CIRCLE('',#625,2.5);
#248=CIRCLE('',#626,2.5);
#249=CIRCLE('',#627,2.5);
#250=CIRCLE('',#629,2.5);
#251=CIRCLE('',#632,2.5);
#252=CIRCLE('',#635,2.5);
#253=VERTEX_POINT('',#835);
#254=VERTEX_POINT('',#837);
#255=VERTEX_POINT('',#842);
#256=VERTEX_POINT('',#844);
#257=VERTEX_POINT('',#849);
#258=VERTEX_POINT('',#851);
#259=VERTEX_POINT('',#856);
#260=VERTEX_POINT('',#857);
#261=VERTEX_POINT('',#859);
#262=VERTEX_POINT('',#861);
#263=VERTEX_POINT('',#865);
#264=VERTEX_POINT('',#867);
#265=VERTEX_POINT('',#871);
#266=VERTEX_POINT('',#873);
#267=VERTEX_POINT('',#875);
#268=VERTEX_POINT('',#877);
#269=VERTEX_POINT('',#879);
#270=VERTEX_POINT('',#882);
#271=VERTEX_POINT('',#883);
#272=VERTEX_POINT('',#885);
#273=VERTEX_POINT('',#887);
#274=VERTEX_POINT('',#889);
#275=VERTEX_POINT('',#893);
#276=VERTEX_POINT('',#897);
#277=VERTEX_POINT('',#900);
#278=VERTEX_POINT('',#901);
#279=VERTEX_POINT('',#903);
#280=VERTEX_POINT('',#905);
#281=VERTEX_POINT('',#909);
#282=VERTEX_POINT('',#913);
#283=VERTEX_POINT('',#916);
#284=VERTEX_POINT('',#917);
#285=VERTEX_POINT('',#919);
#286=VERTEX_POINT('',#921);
#287=VERTEX_POINT('',#925);
#288=VERTEX_POINT('',#931);
#289=VERTEX_POINT('',#933);
#290=VERTEX_POINT('',#937);
#291=VERTEX_POINT('',#938);
#292=VERTEX_POINT('',#947);
#293=VERTEX_POINT('',#948);
#294=VERTEX_POINT('',#953);
#295=VERTEX_POINT('',#957);
#296=VERTEX_POINT('',#963);
#297=VERTEX_POINT('',#964);
#298=VERTEX_POINT('',#969);
#299=VERTEX_POINT('',#970);
#300=VERTEX_POINT('',#975);
#301=VERTEX_POINT('',#979);
#302=VERTEX_POINT('',#985);
#303=VERTEX_POINT('',#989);
#304=VERTEX_POINT('',#993);
#305=VERTEX_POINT('',#994);
#306=EDGE_CURVE('',#253,#253,#239,.T.);
#307=EDGE_CURVE('',#253,#254,#123,.T.);
#308=EDGE_CURVE('',#254,#254,#240,.T.);
#309=EDGE_CURVE('',#255,#255,#241,.T.);
#310=EDGE_CURVE('',#255,#256,#124,.T.);
#311=EDGE_CURVE('',#256,#256,#242,.T.);
#312=EDGE_CURVE('',#257,#257,#243,.T.);
#313=EDGE_CURVE('',#257,#258,#125,.T.);
#314=EDGE_CURVE('',#258,#258,#244,.T.);
#315=EDGE_CURVE('',#259,#260,#245,.T.);
#316=EDGE_CURVE('',#260,#261,#126,.T.);
#317=EDGE_CURVE('',#261,#262,#246,.T.);
#318=EDGE_CURVE('',#262,#259,#127,.T.);
#319=EDGE_CURVE('',#263,#260,#128,.T.);
#320=EDGE_CURVE('',#264,#263,#129,.T.);
#321=EDGE_CURVE('',#261,#264,#130,.T.);
#322=EDGE_CURVE('',#259,#265,#131,.T.);
#323=EDGE_CURVE('',#266,#265,#247,.T.);
#324=EDGE_CURVE('',#266,#267,#132,.T.);
#325=EDGE_CURVE('',#268,#267,#248,.T.);
#326=EDGE_CURVE('',#268,#269,#133,.T.);
#327=EDGE_CURVE('',#263,#269,#249,.T.);
#328=EDGE_CURVE('',#270,#271,#134,.T.);
#329=EDGE_CURVE('',#271,#272,#135,.T.);
#330=EDGE_CURVE('',#272,#273,#136,.T.);
#331=EDGE_CURVE('',#273,#274,#137,.T.);
#332=EDGE_CURVE('',#274,#270,#138,.T.);
#333=EDGE_CURVE('',#269,#275,#139,.T.);
#334=EDGE_CURVE('',#275,#264,#250,.T.);
#335=EDGE_CURVE('',#276,#268,#140,.T.);
#336=EDGE_CURVE('',#275,#276,#141,.T.);
#337=EDGE_CURVE('',#277,#278,#142,.T.);
#338=EDGE_CURVE('',#279,#277,#143,.T.);
#339=EDGE_CURVE('',#280,#279,#144,.T.);
#340=EDGE_CURVE('',#278,#280,#145,.T.);
#341=EDGE_CURVE('',#267,#281,#146,.T.);
#342=EDGE_CURVE('',#281,#276,#251,.T.);
#343=EDGE_CURVE('',#282,#266,#147,.T.);
#344=EDGE_CURVE('',#281,#282,#148,.T.);
#345=EDGE_CURVE('',#283,#284,#149,.T.);
#346=EDGE_CURVE('',#284,#285,#150,.T.);
#347=EDGE_CURVE('',#285,#286,#151,.T.);
#348=EDGE_CURVE('',#286,#283,#152,.T.);
#349=EDGE_CURVE('',#265,#287,#153,.T.);
#350=EDGE_CURVE('',#287,#282,#252,.T.);
#351=EDGE_CURVE('',#262,#287,#154,.T.);
#352=EDGE_CURVE('',#279,#288,#15,.T.);
#353=EDGE_CURVE('',#289,#288,#155,.T.);
#354=EDGE_CURVE('',#289,#280,#16,.T.);
#355=EDGE_CURVE('',#290,#291,#156,.T.);
#356=EDGE_CURVE('',#290,#277,#17,.T.);
#357=EDGE_CURVE('',#291,#278,#18,.T.);
#358=EDGE_CURVE('',#288,#290,#157,.T.);
#359=EDGE_CURVE('',#291,#289,#158,.T.);
#360=EDGE_CURVE('',#292,#293,#159,.T.);
#361=EDGE_CURVE('',#293,#289,#19,.T.);
#362=EDGE_CURVE('',#288,#292,#20,.T.);
#363=EDGE_CURVE('',#293,#294,#160,.T.);
#364=EDGE_CURVE('',#294,#291,#21,.T.);
#365=EDGE_CURVE('',#294,#295,#161,.T.);
#366=EDGE_CURVE('',#295,#290,#22,.T.);
#367=EDGE_CURVE('',#295,#292,#162,.T.);
#368=EDGE_CURVE('',#296,#297,#163,.T.);
#369=EDGE_CURVE('',#272,#296,#164,.T.);
#370=EDGE_CURVE('',#297,#271,#165,.T.);
#371=EDGE_CURVE('',#298,#299,#166,.T.);
#372=EDGE_CURVE('',#298,#284,#167,.T.);
#373=EDGE_CURVE('',#299,#283,#168,.T.);
#374=EDGE_CURVE('',#300,#298,#169,.T.);
#375=EDGE_CURVE('',#300,#285,#170,.T.);
#376=EDGE_CURVE('',#301,#300,#171,.T.);
#377=EDGE_CURVE('',#301,#286,#172,.T.);
#378=EDGE_CURVE('',#299,#301,#173,.T.);
#379=EDGE_CURVE('',#297,#302,#174,.T.);
#380=EDGE_CURVE('',#302,#270,#175,.T.);
#381=EDGE_CURVE('',#303,#296,#176,.T.);
#382=EDGE_CURVE('',#273,#303,#177,.T.);
#383=EDGE_CURVE('',#304,#305,#178,.T.);
#384=EDGE_CURVE('',#304,#302,#179,.T.);
#385=EDGE_CURVE('',#305,#303,#180,.T.);
#386=ORIENTED_EDGE('',*,*,#306,.F.);
#387=ORIENTED_EDGE('',*,*,#307,.T.);
#388=ORIENTED_EDGE('',*,*,#308,.F.);
#389=ORIENTED_EDGE('',*,*,#307,.F.);
#390=ORIENTED_EDGE('',*,*,#306,.T.);
#391=ORIENTED_EDGE('',*,*,#309,.F.);
#392=ORIENTED_EDGE('',*,*,#310,.T.);
#393=ORIENTED_EDGE('',*,*,#311,.F.);
#394=ORIENTED_EDGE('',*,*,#310,.F.);
#395=ORIENTED_EDGE('',*,*,#309,.T.);
#396=ORIENTED_EDGE('',*,*,#312,.F.);
#397=ORIENTED_EDGE('',*,*,#313,.T.);
#398=ORIENTED_EDGE('',*,*,#314,.F.);
#399=ORIENTED_EDGE('',*,*,#313,.F.);
#400=ORIENTED_EDGE('',*,*,#312,.T.);
#401=ORIENTED_EDGE('',*,*,#315,.T.);
#402=ORIENTED_EDGE('',*,*,#316,.T.);
#403=ORIENTED_EDGE('',*,*,#317,.T.);
#404=ORIENTED_EDGE('',*,*,#318,.T.);
#405=ORIENTED_EDGE('',*,*,#316,.F.);
#406=ORIENTED_EDGE('',*,*,#319,.F.);
#407=ORIENTED_EDGE('',*,*,#320,.F.);
#408=ORIENTED_EDGE('',*,*,#321,.F.);
#409=ORIENTED_EDGE('',*,*,#315,.F.);
#410=ORIENTED_EDGE('',*,*,#322,.T.);
#411=ORIENTED_EDGE('',*,*,#323,.F.);
#412=ORIENTED_EDGE('',*,*,#324,.T.);
#413=ORIENTED_EDGE('',*,*,#325,.F.);
#414=ORIENTED_EDGE('',*,*,#326,.T.);
#415=ORIENTED_EDGE('',*,*,#327,.F.);
#416=ORIENTED_EDGE('',*,*,#319,.T.);
#417=ORIENTED_EDGE('',*,*,#328,.T.);
#418=ORIENTED_EDGE('',*,*,#329,.T.);
#419=ORIENTED_EDGE('',*,*,#330,.T.);
#420=ORIENTED_EDGE('',*,*,#331,.T.);
#421=ORIENTED_EDGE('',*,*,#332,.T.);
#422=ORIENTED_EDGE('',*,*,#327,.T.);
#423=ORIENTED_EDGE('',*,*,#333,.T.);
#424=ORIENTED_EDGE('',*,*,#334,.T.);
#425=ORIENTED_EDGE('',*,*,#320,.T.);
#426=ORIENTED_EDGE('',*,*,#333,.F.);
#427=ORIENTED_EDGE('',*,*,#326,.F.);
#428=ORIENTED_EDGE('',*,*,#335,.F.);
#429=ORIENTED_EDGE('',*,*,#336,.F.);
#430=ORIENTED_EDGE('',*,*,#337,.F.);
#431=ORIENTED_EDGE('',*,*,#338,.F.);
#432=ORIENTED_EDGE('',*,*,#339,.F.);
#433=ORIENTED_EDGE('',*,*,#340,.F.);
#434=ORIENTED_EDGE('',*,*,#325,.T.);
#435=ORIENTED_EDGE('',*,*,#341,.T.);
#436=ORIENTED_EDGE('',*,*,#342,.T.);
#437=ORIENTED_EDGE('',*,*,#335,.T.);
#438=ORIENTED_EDGE('',*,*,#341,.F.);
#439=ORIENTED_EDGE('',*,*,#324,.F.);
#440=ORIENTED_EDGE('',*,*,#343,.F.);
#441=ORIENTED_EDGE('',*,*,#344,.F.);
#442=ORIENTED_EDGE('',*,*,#345,.T.);
#443=ORIENTED_EDGE('',*,*,#346,.T.);
#444=ORIENTED_EDGE('',*,*,#347,.T.);
#445=ORIENTED_EDGE('',*,*,#348,.T.);
#446=ORIENTED_EDGE('',*,*,#323,.T.);
#447=ORIENTED_EDGE('',*,*,#349,.T.);
#448=ORIENTED_EDGE('',*,*,#350,.T.);
#449=ORIENTED_EDGE('',*,*,#343,.T.);
#450=ORIENTED_EDGE('',*,*,#318,.F.);
#451=ORIENTED_EDGE('',*,*,#351,.T.);
#452=ORIENTED_EDGE('',*,*,#349,.F.);
#453=ORIENTED_EDGE('',*,*,#322,.F.);
#454=ORIENTED_EDGE('',*,*,#339,.T.);
#455=ORIENTED_EDGE('',*,*,#352,.T.);
#456=ORIENTED_EDGE('',*,*,#353,.F.);
#457=ORIENTED_EDGE('',*,*,#354,.T.);
#458=ORIENTED_EDGE('',*,*,#355,.F.);
#459=ORIENTED_EDGE('',*,*,#356,.T.);
#460=ORIENTED_EDGE('',*,*,#337,.T.);
#461=ORIENTED_EDGE('',*,*,#357,.F.);
#462=ORIENTED_EDGE('',*,*,#338,.T.);
#463=ORIENTED_EDGE('',*,*,#356,.F.);
#464=ORIENTED_EDGE('',*,*,#358,.F.);
#465=ORIENTED_EDGE('',*,*,#352,.F.);
#466=ORIENTED_EDGE('',*,*,#340,.T.);
#467=ORIENTED_EDGE('',*,*,#354,.F.);
#468=ORIENTED_EDGE('',*,*,#359,.F.);
#469=ORIENTED_EDGE('',*,*,#357,.T.);
#470=ORIENTED_EDGE('',*,*,#360,.T.);
#471=ORIENTED_EDGE('',*,*,#361,.T.);
#472=ORIENTED_EDGE('',*,*,#353,.T.);
#473=ORIENTED_EDGE('',*,*,#362,.T.);
#474=ORIENTED_EDGE('',*,*,#363,.T.);
#475=ORIENTED_EDGE('',*,*,#364,.T.);
#476=ORIENTED_EDGE('',*,*,#359,.T.);
#477=ORIENTED_EDGE('',*,*,#361,.F.);
#478=ORIENTED_EDGE('',*,*,#365,.T.);
#479=ORIENTED_EDGE('',*,*,#366,.T.);
#480=ORIENTED_EDGE('',*,*,#355,.T.);
#481=ORIENTED_EDGE('',*,*,#364,.F.);
#482=ORIENTED_EDGE('',*,*,#358,.T.);
#483=ORIENTED_EDGE('',*,*,#366,.F.);
#484=ORIENTED_EDGE('',*,*,#367,.T.);
#485=ORIENTED_EDGE('',*,*,#362,.F.);
#486=ORIENTED_EDGE('',*,*,#368,.F.);
#487=ORIENTED_EDGE('',*,*,#369,.F.);
#488=ORIENTED_EDGE('',*,*,#329,.F.);
#489=ORIENTED_EDGE('',*,*,#370,.F.);
#490=ORIENTED_EDGE('',*,*,#360,.F.);
#491=ORIENTED_EDGE('',*,*,#367,.F.);
#492=ORIENTED_EDGE('',*,*,#365,.F.);
#493=ORIENTED_EDGE('',*,*,#363,.F.);
#494=ORIENTED_EDGE('',*,*,#371,.F.);
#495=ORIENTED_EDGE('',*,*,#372,.T.);
#496=ORIENTED_EDGE('',*,*,#345,.F.);
#497=ORIENTED_EDGE('',*,*,#373,.F.);
#498=ORIENTED_EDGE('',*,*,#374,.F.);
#499=ORIENTED_EDGE('',*,*,#375,.T.);
#500=ORIENTED_EDGE('',*,*,#346,.F.);
#501=ORIENTED_EDGE('',*,*,#372,.F.);
#502=ORIENTED_EDGE('',*,*,#376,.F.);
#503=ORIENTED_EDGE('',*,*,#377,.T.);
#504=ORIENTED_EDGE('',*,*,#347,.F.);
#505=ORIENTED_EDGE('',*,*,#375,.F.);
#506=ORIENTED_EDGE('',*,*,#378,.F.);
#507=ORIENTED_EDGE('',*,*,#373,.T.);
#508=ORIENTED_EDGE('',*,*,#348,.F.);
#509=ORIENTED_EDGE('',*,*,#377,.F.);
#510=ORIENTED_EDGE('',*,*,#379,.F.);
#511=ORIENTED_EDGE('',*,*,#370,.T.);
#512=ORIENTED_EDGE('',*,*,#328,.F.);
#513=ORIENTED_EDGE('',*,*,#380,.F.);
#514=ORIENTED_EDGE('',*,*,#381,.F.);
#515=ORIENTED_EDGE('',*,*,#382,.F.);
#516=ORIENTED_EDGE('',*,*,#330,.F.);
#517=ORIENTED_EDGE('',*,*,#369,.T.);
#518=ORIENTED_EDGE('',*,*,#371,.T.);
#519=ORIENTED_EDGE('',*,*,#378,.T.);
#520=ORIENTED_EDGE('',*,*,#376,.T.);
#521=ORIENTED_EDGE('',*,*,#374,.T.);
#522=ORIENTED_EDGE('',*,*,#383,.F.);
#523=ORIENTED_EDGE('',*,*,#384,.T.);
#524=ORIENTED_EDGE('',*,*,#380,.T.);
#525=ORIENTED_EDGE('',*,*,#332,.F.);
#526=ORIENTED_EDGE('',*,*,#331,.F.);
#527=ORIENTED_EDGE('',*,*,#382,.T.);
#528=ORIENTED_EDGE('',*,*,#385,.F.);
#529=ORIENTED_EDGE('',*,*,#383,.T.);
#530=ORIENTED_EDGE('',*,*,#385,.T.);
#531=ORIENTED_EDGE('',*,*,#381,.T.);
#532=ORIENTED_EDGE('',*,*,#368,.T.);
#533=ORIENTED_EDGE('',*,*,#379,.T.);
#534=ORIENTED_EDGE('',*,*,#384,.F.);
#535=ORIENTED_EDGE('',*,*,#308,.T.);
#536=ORIENTED_EDGE('',*,*,#311,.T.);
#537=ORIENTED_EDGE('',*,*,#314,.T.);
#538=ORIENTED_EDGE('',*,*,#317,.F.);
#539=ORIENTED_EDGE('',*,*,#321,.T.);
#540=ORIENTED_EDGE('',*,*,#334,.F.);
#541=ORIENTED_EDGE('',*,*,#336,.T.);
#542=ORIENTED_EDGE('',*,*,#342,.F.);
#543=ORIENTED_EDGE('',*,*,#344,.T.);
#544=ORIENTED_EDGE('',*,*,#350,.F.);
#545=ORIENTED_EDGE('',*,*,#351,.F.);
#546=CYLINDRICAL_SURFACE('',#608,1.25);
#547=CYLINDRICAL_SURFACE('',#612,1.25);
#548=CYLINDRICAL_SURFACE('',#616,1.25);
#549=CYLINDRICAL_SURFACE('',#620,2.5);
#550=CYLINDRICAL_SURFACE('',#628,2.5);
#551=CYLINDRICAL_SURFACE('',#631,2.5);
#552=CYLINDRICAL_SURFACE('',#634,2.5);
#553=CYLINDRICAL_SURFACE('',#637,1.);
#554=CYLINDRICAL_SURFACE('',#640,1.);
#555=CYLINDRICAL_SURFACE('',#643,1.);
#556=CYLINDRICAL_SURFACE('',#644,1.);
#557=CYLINDRICAL_SURFACE('',#645,1.);
#558=CYLINDRICAL_SURFACE('',#648,1.);
#559=CYLINDRICAL_SURFACE('',#650,1.);
#560=CYLINDRICAL_SURFACE('',#652,1.);
#561=ADVANCED_FACE('',(#49),#546,.T.);
#562=ADVANCED_FACE('',(#50),#31,.T.);
#563=ADVANCED_FACE('',(#51),#547,.T.);
#564=ADVANCED_FACE('',(#52),#32,.T.);
#565=ADVANCED_FACE('',(#53),#548,.T.);
#566=ADVANCED_FACE('',(#54),#33,.T.);
#567=ADVANCED_FACE('',(#55),#549,.T.);
#568=ADVANCED_FACE('',(#56),#34,.T.);
#569=ADVANCED_FACE('',(#57,#23),#35,.T.);
#570=ADVANCED_FACE('',(#58),#550,.T.);
#571=ADVANCED_FACE('',(#59,#24),#36,.T.);
#572=ADVANCED_FACE('',(#60),#551,.T.);
#573=ADVANCED_FACE('',(#61,#25),#37,.T.);
#574=ADVANCED_FACE('',(#62),#552,.T.);
#575=ADVANCED_FACE('',(#63),#38,.T.);
#576=ADVANCED_FACE('',(#64),#553,.T.);
#577=ADVANCED_FACE('',(#65),#554,.T.);
#578=ADVANCED_FACE('',(#66),#555,.T.);
#579=ADVANCED_FACE('',(#67),#556,.T.);
#580=ADVANCED_FACE('',(#68),#557,.T.);
#581=ADVANCED_FACE('',(#69),#558,.T.);
#582=ADVANCED_FACE('',(#70),#559,.T.);
#583=ADVANCED_FACE('',(#71),#560,.T.);
#584=ADVANCED_FACE('',(#72,#26),#39,.F.);
#585=ADVANCED_FACE('',(#73),#40,.F.);
#586=ADVANCED_FACE('',(#74),#41,.F.);
#587=ADVANCED_FACE('',(#75),#42,.F.);
#588=ADVANCED_FACE('',(#76),#43,.F.);
#589=ADVANCED_FACE('',(#77),#44,.F.);
#590=ADVANCED_FACE('',(#78,#27),#45,.F.);
#591=ADVANCED_FACE('',(#79),#46,.F.);
#592=ADVANCED_FACE('',(#80,#28,#29,#30),#47,.T.);
#593=ADVANCED_FACE('',(#81),#48,.F.);
#594=CLOSED_SHELL('',(#561,#562,#563,#564,#565,#566,#567,#568,#569,#570,
#571,#572,#573,#574,#575,#576,#577,#578,#579,#580,#581,#582,#583,#584,#585,
#586,#587,#588,#589,#590,#591,#592,#593));
#595=DERIVED_UNIT_ELEMENT(#597,1.);
#596=DERIVED_UNIT_ELEMENT(#1005,-3.);
#597=(
MASS_UNIT()
NAMED_UNIT(*)
SI_UNIT(.KILO.,.GRAM.)
);
#598=DERIVED_UNIT((#595,#596));
#599=MEASURE_REPRESENTATION_ITEM('density measure',
POSITIVE_RATIO_MEASURE(7850.),#598);
#600=PROPERTY_DEFINITION_REPRESENTATION(#605,#602);
#601=PROPERTY_DEFINITION_REPRESENTATION(#606,#603);
#602=REPRESENTATION('material name',(#604),#1002);
#603=REPRESENTATION('density',(#599),#1002);
#604=DESCRIPTIVE_REPRESENTATION_ITEM('Steel','Steel');
#605=PROPERTY_DEFINITION('material property','material name',#1012);
#606=PROPERTY_DEFINITION('material property','density of part',#1012);
#607=AXIS2_PLACEMENT_3D('',#833,#663,#664);
#608=AXIS2_PLACEMENT_3D('',#834,#665,#666);
#609=AXIS2_PLACEMENT_3D('',#836,#667,#668);
#610=AXIS2_PLACEMENT_3D('',#839,#670,#671);
#611=AXIS2_PLACEMENT_3D('',#840,#672,#673);
#612=AXIS2_PLACEMENT_3D('',#841,#674,#675);
#613=AXIS2_PLACEMENT_3D('',#843,#676,#677);
#614=AXIS2_PLACEMENT_3D('',#846,#679,#680);
#615=AXIS2_PLACEMENT_3D('',#847,#681,#682);
#616=AXIS2_PLACEMENT_3D('',#848,#683,#684);
#617=AXIS2_PLACEMENT_3D('',#850,#685,#686);
#618=AXIS2_PLACEMENT_3D('',#853,#688,#689);
#619=AXIS2_PLACEMENT_3D('',#854,#690,#691);
#620=AXIS2_PLACEMENT_3D('',#855,#692,#693);
#621=AXIS2_PLACEMENT_3D('',#858,#694,#695);
#622=AXIS2_PLACEMENT_3D('',#862,#697,#698);
#623=AXIS2_PLACEMENT_3D('',#864,#700,#701);
#624=AXIS2_PLACEMENT_3D('',#870,#705,#706);
#625=AXIS2_PLACEMENT_3D('',#874,#708,#709);
#626=AXIS2_PLACEMENT_3D('',#878,#711,#712);
#627=AXIS2_PLACEMENT_3D('',#881,#714,#715);
#628=AXIS2_PLACEMENT_3D('',#892,#721,#722);
#629=AXIS2_PLACEMENT_3D('',#895,#724,#725);
#630=AXIS2_PLACEMENT_3D('',#896,#726,#727);
#631=AXIS2_PLACEMENT_3D('',#908,#734,#735);
#632=AXIS2_PLACEMENT_3D('',#911,#737,#738);
#633=AXIS2_PLACEMENT_3D('',#912,#739,#740);
#634=AXIS2_PLACEMENT_3D('',#924,#747,#748);
#635=AXIS2_PLACEMENT_3D('',#927,#750,#751);
#636=AXIS2_PLACEMENT_3D('',#928,#752,#753);
#637=AXIS2_PLACEMENT_3D('',#930,#755,#756);
#638=AXIS2_PLACEMENT_3D('',#932,#757,#758);
#639=AXIS2_PLACEMENT_3D('',#935,#760,#761);
#640=AXIS2_PLACEMENT_3D('',#936,#762,#763);
#641=AXIS2_PLACEMENT_3D('',#940,#765,#766);
#642=AXIS2_PLACEMENT_3D('',#941,#767,#768);
#643=AXIS2_PLACEMENT_3D('',#942,#769,#770);
#644=AXIS2_PLACEMENT_3D('',#944,#772,#773);
#645=AXIS2_PLACEMENT_3D('',#946,#775,#776);
#646=AXIS2_PLACEMENT_3D('',#950,#778,#779);
#647=AXIS2_PLACEMENT_3D('',#951,#780,#781);
#648=AXIS2_PLACEMENT_3D('',#952,#782,#783);
#649=AXIS2_PLACEMENT_3D('',#955,#785,#786);
#650=AXIS2_PLACEMENT_3D('',#956,#787,#788);
#651=AXIS2_PLACEMENT_3D('',#959,#790,#791);
#652=AXIS2_PLACEMENT_3D('',#960,#792,#793);
#653=AXIS2_PLACEMENT_3D('',#962,#795,#796);
#654=AXIS2_PLACEMENT_3D('',#968,#800,#801);
#655=AXIS2_PLACEMENT_3D('',#974,#805,#806);
#656=AXIS2_PLACEMENT_3D('',#978,#809,#810);
#657=AXIS2_PLACEMENT_3D('',#982,#813,#814);
#658=AXIS2_PLACEMENT_3D('',#984,#816,#817);
#659=AXIS2_PLACEMENT_3D('',#988,#820,#821);
#660=AXIS2_PLACEMENT_3D('',#992,#824,#825);
#661=AXIS2_PLACEMENT_3D('',#998,#829,#830);
#662=AXIS2_PLACEMENT_3D('',#999,#831,#832);
#663=DIRECTION('axis',(0.,0.,1.));
#664=DIRECTION('refdir',(1.,0.,0.));
#665=DIRECTION('center_axis',(0.,0.,1.));
#666=DIRECTION('ref_axis',(-1.,0.,0.));
#667=DIRECTION('center_axis',(0.,0.,1.));
#668=DIRECTION('ref_axis',(-1.,0.,0.));
#669=DIRECTION('',(0.,0.,-1.));
#670=DIRECTION('center_axis',(0.,0.,-1.));
#671=DIRECTION('ref_axis',(-1.,0.,0.));
#672=DIRECTION('center_axis',(0.,0.,1.));
#673=DIRECTION('ref_axis',(-1.,0.,0.));
#674=DIRECTION('center_axis',(0.,0.,1.));
#675=DIRECTION('ref_axis',(-1.,0.,0.));
#676=DIRECTION('center_axis',(0.,0.,1.));
#677=DIRECTION('ref_axis',(-1.,0.,0.));
#678=DIRECTION('',(0.,0.,-1.));
#679=DIRECTION('center_axis',(0.,0.,-1.));
#680=DIRECTION('ref_axis',(-1.,0.,0.));
#681=DIRECTION('center_axis',(0.,0.,1.));
#682=DIRECTION('ref_axis',(-1.,0.,0.));
#683=DIRECTION('center_axis',(0.,0.,1.));
#684=DIRECTION('ref_axis',(-1.,0.,0.));
#685=DIRECTION('center_axis',(0.,0.,1.));
#686=DIRECTION('ref_axis',(-1.,0.,0.));
#687=DIRECTION('',(0.,0.,-1.));
#688=DIRECTION('center_axis',(0.,0.,-1.));
#689=DIRECTION('ref_axis',(-1.,0.,0.));
#690=DIRECTION('center_axis',(0.,0.,1.));
#691=DIRECTION('ref_axis',(-1.,0.,0.));
#692=DIRECTION('center_axis',(0.,0.,1.));
#693=DIRECTION('ref_axis',(0.707106781186547,-0.707106781186547,0.));
#694=DIRECTION('center_axis',(0.,0.,-1.));
#695=DIRECTION('ref_axis',(0.707106781186547,-0.707106781186547,0.));
#696=DIRECTION('',(0.,0.,-1.));
#697=DIRECTION('center_axis',(0.,0.,1.));
#698=DIRECTION('ref_axis',(0.707106781186547,-0.707106781186547,0.));
#699=DIRECTION('',(0.,0.,1.));
#700=DIRECTION('center_axis',(0.,-1.,0.));
#701=DIRECTION('ref_axis',(1.,0.,0.));
#702=DIRECTION('',(1.,0.,0.));
#703=DIRECTION('',(0.,0.,1.));
#704=DIRECTION('',(-1.,0.,0.));
#705=DIRECTION('center_axis',(0.,0.,1.));
#706=DIRECTION('ref_axis',(1.,0.,0.));
#707=DIRECTION('',(0.,1.,0.));
#708=DIRECTION('center_axis',(0.,0.,-1.));
#709=DIRECTION('ref_axis',(0.707106781186547,0.707106781186547,0.));
#710=DIRECTION('',(-1.,0.,0.));
#711=DIRECTION('center_axis',(0.,0.,-1.));
#712=DIRECTION('ref_axis',(-0.707106781186547,0.707106781186547,0.));
#713=DIRECTION('',(0.,-1.,0.));
#714=DIRECTION('center_axis',(0.,0.,-1.));
#715=DIRECTION('ref_axis',(-0.707106781186547,-0.707106781186547,0.));
#716=DIRECTION('',(-1.,0.,0.));
#717=DIRECTION('',(0.,1.,0.));
#718=DIRECTION('',(1.,0.,0.));
#719=DIRECTION('',(0.,-1.,0.));
#720=DIRECTION('',(0.,-1.,0.));
#721=DIRECTION('center_axis',(0.,0.,1.));
#722=DIRECTION('ref_axis',(-0.707106781186547,-0.707106781186547,0.));
#723=DIRECTION('',(0.,0.,-1.));
#724=DIRECTION('center_axis',(0.,0.,1.));
#725=DIRECTION('ref_axis',(-0.707106781186547,-0.707106781186547,0.));
#726=DIRECTION('center_axis',(-1.,0.,0.));
#727=DIRECTION('ref_axis',(0.,-1.,0.));
#728=DIRECTION('',(0.,0.,1.));
#729=DIRECTION('',(0.,1.,0.));
#730=DIRECTION('',(0.,0.,1.));
#731=DIRECTION('',(0.,-1.,0.));
#732=DIRECTION('',(0.,0.,-1.));
#733=DIRECTION('',(0.,1.,0.));
#734=DIRECTION('center_axis',(0.,0.,1.));
#735=DIRECTION('ref_axis',(-0.707106781186547,0.707106781186547,0.));
#736=DIRECTION('',(0.,0.,-1.));
#737=DIRECTION('center_axis',(0.,0.,1.));
#738=DIRECTION('ref_axis',(-0.707106781186547,0.707106781186547,0.));
#739=DIRECTION('center_axis',(0.,1.,0.));
#740=DIRECTION('ref_axis',(-1.,0.,0.));
#741=DIRECTION('',(0.,0.,1.));
#742=DIRECTION('',(1.,0.,0.));
#743=DIRECTION('',(0.,0.,1.));
#744=DIRECTION('',(-1.,0.,0.));
#745=DIRECTION('',(0.,0.,-1.));
#746=DIRECTION('',(1.,0.,0.));
#747=DIRECTION('center_axis',(0.,0.,1.));
#748=DIRECTION('ref_axis',(0.707106781186547,0.707106781186547,0.));
#749=DIRECTION('',(0.,0.,-1.));
#750=DIRECTION('center_axis',(0.,0.,1.));
#751=DIRECTION('ref_axis',(0.707106781186547,0.707106781186547,0.));
#752=DIRECTION('center_axis',(1.,0.,0.));
#753=DIRECTION('ref_axis',(0.,1.,0.));
#754=DIRECTION('',(0.,1.,0.));
#755=DIRECTION('center_axis',(0.,0.,1.));
#756=DIRECTION('ref_axis',(-0.707106781186549,-0.707106781186546,0.));
#757=DIRECTION('center_axis',(0.,0.707106781186547,0.707106781186548));
#758=DIRECTION('ref_axis',(0.,0.707106781186548,-0.707106781186547));
#759=DIRECTION('',(0.,0.,-1.));
#760=DIRECTION('center_axis',(0.,0.707106781186547,-0.707106781186548));
#761=DIRECTION('ref_axis',(0.,-0.707106781186548,-0.707106781186547));
#762=DIRECTION('center_axis',(0.,0.,-1.));
#763=DIRECTION('ref_axis',(-0.707106781186549,0.707106781186546,0.));
#764=DIRECTION('',(0.,0.,1.));
#765=DIRECTION('center_axis',(0.,-0.707106781186547,0.707106781186548));
#766=DIRECTION('ref_axis',(0.,0.707106781186548,0.707106781186547));
#767=DIRECTION('center_axis',(0.,0.707106781186547,0.707106781186548));
#768=DIRECTION('ref_axis',(0.,0.707106781186548,-0.707106781186547));
#769=DIRECTION('center_axis',(0.,1.,0.));
#770=DIRECTION('ref_axis',(-0.707106781186548,0.,0.707106781186547));
#771=DIRECTION('',(0.,-1.,0.));
#772=DIRECTION('center_axis',(0.,-1.,0.));
#773=DIRECTION('ref_axis',(-0.707106781186548,0.,-0.707106781186547));
#774=DIRECTION('',(0.,1.,0.));
#775=DIRECTION('center_axis',(0.,0.,-1.));
#776=DIRECTION('ref_axis',(0.707106781186549,-0.707106781186546,0.));
#777=DIRECTION('',(0.,0.,1.));
#778=DIRECTION('center_axis',(0.,0.707106781186547,-0.707106781186548));
#779=DIRECTION('ref_axis',(0.,0.707106781186548,0.707106781186547));
#780=DIRECTION('center_axis',(0.,0.707106781186547,0.707106781186548));
#781=DIRECTION('ref_axis',(0.,-0.707106781186548,0.707106781186547));
#782=DIRECTION('center_axis',(0.,1.,0.));
#783=DIRECTION('ref_axis',(0.707106781186548,0.,-0.707106781186547));
#784=DIRECTION('',(0.,-1.,0.));
#785=DIRECTION('center_axis',(0.,0.707106781186547,0.707106781186548));
#786=DIRECTION('ref_axis',(0.,-0.707106781186548,0.707106781186547));
#787=DIRECTION('center_axis',(0.,0.,1.));
#788=DIRECTION('ref_axis',(0.707106781186549,0.707106781186546,0.));
#789=DIRECTION('',(0.,0.,-1.));
#790=DIRECTION('center_axis',(0.,-0.707106781186547,0.707106781186548));
#791=DIRECTION('ref_axis',(0.,-0.707106781186548,-0.707106781186547));
#792=DIRECTION('center_axis',(0.,-1.,0.));
#793=DIRECTION('ref_axis',(0.707106781186548,0.,0.707106781186547));
#794=DIRECTION('',(0.,1.,0.));
#795=DIRECTION('center_axis',(-1.,0.,0.));
#796=DIRECTION('ref_axis',(0.,0.,1.));
#797=DIRECTION('',(0.,-1.,0.));
#798=DIRECTION('',(0.,0.,-1.));
#799=DIRECTION('',(0.,0.,1.));
#800=DIRECTION('center_axis',(1.,0.,0.));
#801=DIRECTION('ref_axis',(0.,0.,-1.));
#802=DIRECTION('',(0.,0.,-1.));
#803=DIRECTION('',(0.,1.,0.));
#804=DIRECTION('',(0.,1.,0.));
#805=DIRECTION('center_axis',(0.,0.,1.));
#806=DIRECTION('ref_axis',(1.,0.,0.));
#807=DIRECTION('',(1.,0.,0.));
#808=DIRECTION('',(0.,1.,0.));
#809=DIRECTION('center_axis',(-1.,0.,0.));
#810=DIRECTION('ref_axis',(0.,0.,1.));
#811=DIRECTION('',(0.,0.,1.));
#812=DIRECTION('',(0.,1.,0.));
#813=DIRECTION('center_axis',(0.,0.,-1.));
#814=DIRECTION('ref_axis',(-1.,0.,0.));
#815=DIRECTION('',(-1.,0.,0.));
#816=DIRECTION('center_axis',(0.,-1.,0.));
#817=DIRECTION('ref_axis',(0.,0.,-1.));
#818=DIRECTION('',(1.,0.,0.));
#819=DIRECTION('',(0.,0.,1.));
#820=DIRECTION('center_axis',(0.,1.,0.));
#821=DIRECTION('ref_axis',(0.,0.,1.));
#822=DIRECTION('',(-1.,0.,0.));
#823=DIRECTION('',(0.,0.,-1.));
#824=DIRECTION('center_axis',(1.,0.,0.));
#825=DIRECTION('ref_axis',(0.,0.,-1.));
#826=DIRECTION('',(0.,1.,0.));
#827=DIRECTION('',(0.,-1.,0.));
#828=DIRECTION('',(0.,1.,0.));
#829=DIRECTION('center_axis',(0.,0.,1.));
#830=DIRECTION('ref_axis',(1.,0.,0.));
#831=DIRECTION('center_axis',(0.,0.,1.));
#832=DIRECTION('ref_axis',(1.,0.,0.));
#833=CARTESIAN_POINT('',(0.,0.,0.));
#834=CARTESIAN_POINT('Origin',(49.2500026598573,-5.75,2.));
#835=CARTESIAN_POINT('',(50.5000026598573,-5.75,7.));
#836=CARTESIAN_POINT('Origin',(49.2500026598573,-5.75,7.));
#837=CARTESIAN_POINT('',(50.5000026598573,-5.75,2.));
#838=CARTESIAN_POINT('',(50.5000026598573,-5.75,2.));
#839=CARTESIAN_POINT('Origin',(49.2500026598573,-5.75,2.));
#840=CARTESIAN_POINT('Origin',(49.2500026598573,-5.75,7.));
#841=CARTESIAN_POINT('Origin',(49.2500026598573,-52.25000075719,2.));
#842=CARTESIAN_POINT('',(50.5000026598573,-52.25000075719,7.));
#843=CARTESIAN_POINT('Origin',(49.2500026598573,-52.25000075719,7.));
#844=CARTESIAN_POINT('',(50.5000026598573,-52.25000075719,2.));
#845=CARTESIAN_POINT('',(50.5000026598573,-52.25000075719,2.));
#846=CARTESIAN_POINT('Origin',(49.2500026598573,-52.25000075719,2.));
#847=CARTESIAN_POINT('Origin',(49.2500026598573,-52.25000075719,7.));
#848=CARTESIAN_POINT('Origin',(6.75,-52.2500001070774,2.));
#849=CARTESIAN_POINT('',(8.,-52.2500001070774,7.));
#850=CARTESIAN_POINT('Origin',(6.75,-52.2500001070774,7.));
#851=CARTESIAN_POINT('',(8.,-52.2500001070774,2.));
#852=CARTESIAN_POINT('',(8.,-52.2500001070774,2.));
#853=CARTESIAN_POINT('Origin',(6.75,-52.2500001070774,2.));
#854=CARTESIAN_POINT('Origin',(6.75,-52.2500001070774,7.));
#855=CARTESIAN_POINT('Origin',(55.7500027667265,-57.7499998931307,0.));
#856=CARTESIAN_POINT('',(58.2500027667265,-57.7499998931307,22.));
#857=CARTESIAN_POINT('',(55.7500027667265,-60.2500008642673,22.));
#858=CARTESIAN_POINT('Origin',(55.7500027667265,-57.7499998931307,22.));
#859=CARTESIAN_POINT('',(55.7500027667265,-60.2500008642673,0.));
#860=CARTESIAN_POINT('',(55.7500027667265,-60.2499998931307,0.));
#861=CARTESIAN_POINT('',(58.2500027667265,-57.7499998931307,0.));
#862=CARTESIAN_POINT('Origin',(55.7500027667265,-57.7499998931307,0.));
#863=CARTESIAN_POINT('',(58.2500027667265,-57.7499998931307,0.));
#864=CARTESIAN_POINT('Origin',(56.2500027667265,-60.2499998931307,0.));
#865=CARTESIAN_POINT('',(0.249999893130735,-60.2500008642673,22.));
#866=CARTESIAN_POINT('',(0.,-60.2500008642673,22.));
#867=CARTESIAN_POINT('',(0.249999893130735,-60.2500008642673,0.));
#868=CARTESIAN_POINT('',(0.249999893130735,-60.2499998931307,0.));
#869=CARTESIAN_POINT('',(0.,-60.2500008642673,0.));
#870=CARTESIAN_POINT('Origin',(28.,1.25000010686927,22.));
#871=CARTESIAN_POINT('',(58.2500027667265,-0.249999893130735,22.));
#872=CARTESIAN_POINT('',(58.2500027667265,-60.2499998931307,22.));
#873=CARTESIAN_POINT('',(55.7500027667265,2.25000010686927,22.));
#874=CARTESIAN_POINT('Origin',(55.7500027667265,-0.249999893130735,22.));
#875=CARTESIAN_POINT('',(0.249999893130735,2.25000010686927,22.));
#876=CARTESIAN_POINT('',(0.,2.25000010686927,22.));
#877=CARTESIAN_POINT('',(-2.25000010686927,-0.249999893130735,22.));
#878=CARTESIAN_POINT('Origin',(0.249999893130735,-0.249999893130735,22.));
#879=CARTESIAN_POINT('',(-2.25000010686927,-57.7499998931307,22.));
#880=CARTESIAN_POINT('',(-2.25000010686927,-60.2499998931307,22.));
#881=CARTESIAN_POINT('Origin',(0.249999893130735,-57.7499998931307,22.));
#882=CARTESIAN_POINT('',(56.2500026598573,-58.2500008642673,22.));
#883=CARTESIAN_POINT('',(-0.25,-58.2500008642673,22.));
#884=CARTESIAN_POINT('',(14.,-58.2500008642673,22.));
#885=CARTESIAN_POINT('',(-0.25,0.250000000000004,22.));
#886=CARTESIAN_POINT('',(-0.249999999999999,-28.375000378699,22.));
#887=CARTESIAN_POINT('',(56.250000834465,0.25,22.));
#888=CARTESIAN_POINT('',(14.,0.25,22.));
#889=CARTESIAN_POINT('',(56.2500026598573,-58.0000008642673,22.));
#890=CARTESIAN_POINT('',(56.2500026598573,0.625000053434633,22.));
#891=CARTESIAN_POINT('',(56.2500026598573,-28.375000378699,22.));
#892=CARTESIAN_POINT('Origin',(0.249999893130735,-57.7499998931307,0.));
#893=CARTESIAN_POINT('',(-2.25000010686927,-57.7499998931307,0.));
#894=CARTESIAN_POINT('',(-2.25000010686927,-57.7499998931307,0.));
#895=CARTESIAN_POINT('Origin',(0.249999893130735,-57.7499998931307,0.));
#896=CARTESIAN_POINT('Origin',(-2.25000010686927,2.25000010686927,0.));
#897=CARTESIAN_POINT('',(-2.25000010686927,-0.249999893130735,0.));
#898=CARTESIAN_POINT('',(-2.25000010686927,-0.249999893130735,0.));
#899=CARTESIAN_POINT('',(-2.25000010686927,-60.2499998931307,0.));
#900=CARTESIAN_POINT('',(-2.25000010686927,-33.95,2.75));
#901=CARTESIAN_POINT('',(-2.25000010686927,-33.95,8.25));
#902=CARTESIAN_POINT('',(-2.25000010686927,-33.95,1.875));
#903=CARTESIAN_POINT('',(-2.25000010686927,-21.95,2.75));
#904=CARTESIAN_POINT('',(-2.25000010686927,-10.3499999465654,2.75));
#905=CARTESIAN_POINT('',(-2.25000010686927,-21.95,8.25));
#906=CARTESIAN_POINT('',(-2.25000010686927,-21.95,3.625));
#907=CARTESIAN_POINT('',(-2.25000010686927,-15.3499999465654,8.25));
#908=CARTESIAN_POINT('Origin',(0.249999893130735,-0.249999893130735,0.));
#909=CARTESIAN_POINT('',(0.249999893130735,2.25000010686927,0.));
#910=CARTESIAN_POINT('',(0.249999893130735,2.25000010686927,0.));
#911=CARTESIAN_POINT('Origin',(0.249999893130735,-0.249999893130735,0.));
#912=CARTESIAN_POINT('Origin',(56.,2.25000010686927,0.));
#913=CARTESIAN_POINT('',(55.7500027667265,2.25000010686927,0.));
#914=CARTESIAN_POINT('',(55.7500027667265,2.25000010686927,0.));
#915=CARTESIAN_POINT('',(0.,2.25000010686927,0.));
#916=CARTESIAN_POINT('',(20.8500004068017,2.25,10.5));
#917=CARTESIAN_POINT('',(20.8500004068017,2.25,13.));
#918=CARTESIAN_POINT('',(20.8500004068017,2.25000010686927,6.5));
#919=CARTESIAN_POINT('',(9.85000040680167,2.25,13.));
#920=CARTESIAN_POINT('',(32.9250002034008,2.25000010686927,13.));
#921=CARTESIAN_POINT('',(9.85000040680167,2.25,10.5));
#922=CARTESIAN_POINT('',(9.85000040680167,2.25000010686927,5.25));
#923=CARTESIAN_POINT('',(38.4250002034008,2.25000010686927,10.5));
#924=CARTESIAN_POINT('Origin',(55.7500027667265,-0.249999893130735,0.));
#925=CARTESIAN_POINT('',(58.2500027667265,-0.249999893130735,0.));
#926=CARTESIAN_POINT('',(58.2500027667265,-0.249999893130735,0.));
#927=CARTESIAN_POINT('Origin',(55.7500027667265,-0.249999893130735,0.));
#928=CARTESIAN_POINT('Origin',(58.2500027667265,-60.2499998931307,0.));
#929=CARTESIAN_POINT('',(58.2500027667265,-60.2499998931307,0.));
#930=CARTESIAN_POINT('Origin',(-1.25000010686927,-21.95,3.625));
#931=CARTESIAN_POINT('',(-1.25,-22.95,3.75));
#932=CARTESIAN_POINT('Origin',(-1.25000010686927,-21.95,2.75));
#933=CARTESIAN_POINT('',(-1.25,-22.95,7.25));
#934=CARTESIAN_POINT('',(-1.25,-22.95,3.625));
#935=CARTESIAN_POINT('Origin',(-1.25000010686927,-21.95,8.25));
#936=CARTESIAN_POINT('Origin',(-1.25000010686927,-33.95,1.875));
#937=CARTESIAN_POINT('',(-1.25,-32.95,3.75));
#938=CARTESIAN_POINT('',(-1.25,-32.95,7.25));
#939=CARTESIAN_POINT('',(-1.25,-32.95,1.875));
#940=CARTESIAN_POINT('Origin',(-1.25000010686927,-33.95,2.75));
#941=CARTESIAN_POINT('Origin',(-1.25000010686927,-33.95,8.25));
#942=CARTESIAN_POINT('Origin',(-1.25000010686927,-10.3499999465654,2.75));
#943=CARTESIAN_POINT('',(-1.25,-40.4750004321337,3.75));
#944=CARTESIAN_POINT('Origin',(-1.25000010686927,-15.3499999465654,8.25));
#945=CARTESIAN_POINT('',(-1.25,-45.4750004321337,7.25));
#946=CARTESIAN_POINT('Origin',(-1.25,-21.95,3.625));
#947=CARTESIAN_POINT('',(-0.25,-21.95,2.75));
#948=CARTESIAN_POINT('',(-0.25,-21.95,8.25));
#949=CARTESIAN_POINT('',(-0.25,-21.95,3.625));
#950=CARTESIAN_POINT('Origin',(-1.25,-21.95,8.25));
#951=CARTESIAN_POINT('Origin',(-1.25,-21.95,2.75));
#952=CARTESIAN_POINT('Origin',(-1.25,-45.4750004321337,8.25));
#953=CARTESIAN_POINT('',(-0.25,-33.95,8.25));
#954=CARTESIAN_POINT('',(-0.25,-45.4750004321337,8.25));
#955=CARTESIAN_POINT('Origin',(-1.25,-33.95,8.25));
#956=CARTESIAN_POINT('Origin',(-1.25,-33.95,1.875));
#957=CARTESIAN_POINT('',(-0.25,-33.95,2.75));
#958=CARTESIAN_POINT('',(-0.25,-33.95,1.875));
#959=CARTESIAN_POINT('Origin',(-1.25,-33.95,2.75));
#960=CARTESIAN_POINT('Origin',(-1.25,-40.4750004321337,2.75));
#961=CARTESIAN_POINT('',(-0.25,-40.4750004321337,2.75));
#962=CARTESIAN_POINT('Origin',(-0.25,-58.0000008642673,0.));
#963=CARTESIAN_POINT('',(-0.25,0.250000000000004,2.));
#964=CARTESIAN_POINT('',(-0.25,-58.25,2.));
#965=CARTESIAN_POINT('',(-0.25,0.,2.));
#966=CARTESIAN_POINT('',(-0.25,0.25,0.));
#967=CARTESIAN_POINT('',(-0.25,-58.2500008642673,0.));
#968=CARTESIAN_POINT('Origin',(20.8500004068017,0.25,13.));
#969=CARTESIAN_POINT('',(20.8500004068017,0.25,13.));
#970=CARTESIAN_POINT('',(20.8500004068017,0.25,10.5));
#971=CARTESIAN_POINT('',(20.8500004068017,0.25,6.5));
#972=CARTESIAN_POINT('',(20.8500004068017,0.25,13.));
#973=CARTESIAN_POINT('',(20.8500004068017,0.25,10.5));
#974=CARTESIAN_POINT('Origin',(9.85000040680167,0.25,13.));
#975=CARTESIAN_POINT('',(9.85000040680167,0.25,13.));
#976=CARTESIAN_POINT('',(4.92500020340084,0.25,13.));
#977=CARTESIAN_POINT('',(9.85000040680167,0.25,13.));
#978=CARTESIAN_POINT('Origin',(9.85000040680167,0.25,10.5));
#979=CARTESIAN_POINT('',(9.85000040680167,0.25,10.5));
#980=CARTESIAN_POINT('',(9.85000040680167,0.25,5.25));
#981=CARTESIAN_POINT('',(9.85000040680167,0.25,10.5));
#982=CARTESIAN_POINT('Origin',(20.8500004068017,0.25,10.5));
#983=CARTESIAN_POINT('',(10.4250002034008,0.25,10.5));
#984=CARTESIAN_POINT('Origin',(56.000000834465,-58.25,0.));
#985=CARTESIAN_POINT('',(56.25,-58.25,2.));
#986=CARTESIAN_POINT('',(42.0000004172325,-58.2500008642673,2.));
#987=CARTESIAN_POINT('',(56.2500026598573,-58.2500008642673,0.));
#988=CARTESIAN_POINT('Origin',(0.,0.25,0.));
#989=CARTESIAN_POINT('',(56.25,0.25,2.));
#990=CARTESIAN_POINT('',(56.,0.25,2.));
#991=CARTESIAN_POINT('',(56.2500026598573,0.25,0.));
#992=CARTESIAN_POINT('Origin',(56.25,2.25000010686927,0.));
#993=CARTESIAN_POINT('',(56.25,-58.,2.));
#994=CARTESIAN_POINT('',(56.25,0.,2.));
#995=CARTESIAN_POINT('',(56.2500026598573,-13.3749999465654,2.));
#996=CARTESIAN_POINT('',(56.25,-58.,2.));
#997=CARTESIAN_POINT('',(56.25,0.,2.));
#998=CARTESIAN_POINT('Origin',(28.,-29.,2.));
#999=CARTESIAN_POINT('Origin',(28.,1.25000010686927,0.));
#1000=UNCERTAINTY_MEASURE_WITH_UNIT(LENGTH_MEASURE(0.01),#1004,
'DISTANCE_ACCURACY_VALUE',
'Maximum model space distance between geometric entities at asserted c
onnectivities');
#1001=UNCERTAINTY_MEASURE_WITH_UNIT(LENGTH_MEASURE(0.01),#1004,
'DISTANCE_ACCURACY_VALUE',
'Maximum model space distance between geometric entities at asserted c
onnectivities');
#1002=(
GEOMETRIC_REPRESENTATION_CONTEXT(3)
GLOBAL_UNCERTAINTY_ASSIGNED_CONTEXT((#1000))
GLOBAL_UNIT_ASSIGNED_CONTEXT((#1004,#1006,#1007))
REPRESENTATION_CONTEXT('','3D')
);
#1003=(
GEOMETRIC_REPRESENTATION_CONTEXT(3)
GLOBAL_UNCERTAINTY_ASSIGNED_CONTEXT((#1001))
GLOBAL_UNIT_ASSIGNED_CONTEXT((#1004,#1006,#1007))
REPRESENTATION_CONTEXT('','3D')
);
#1004=(
LENGTH_UNIT()
NAMED_UNIT(*)
SI_UNIT(.MILLI.,.METRE.)
);
#1005=(
LENGTH_UNIT()
NAMED_UNIT(*)
SI_UNIT($,.METRE.)
);
#1006=(
NAMED_UNIT(*)
PLANE_ANGLE_UNIT()
SI_UNIT($,.RADIAN.)
);
#1007=(
NAMED_UNIT(*)
SI_UNIT($,.STERADIAN.)
SOLID_ANGLE_UNIT()
);
#1008=SHAPE_DEFINITION_REPRESENTATION(#1009,#1010);
#1009=PRODUCT_DEFINITION_SHAPE('',$,#1012);
#1010=SHAPE_REPRESENTATION('',(#607),#1002);
#1011=PRODUCT_DEFINITION_CONTEXT('part definition',#1016,'design');
#1012=PRODUCT_DEFINITION('2026-09-11-18-16-40-447','Bottom case',#1013,
#1011);
#1013=PRODUCT_DEFINITION_FORMATION('',$,#1018);
#1014=PRODUCT_RELATED_PRODUCT_CATEGORY('Bottom case','Bottom case',(#1018));
#1015=APPLICATION_PROTOCOL_DEFINITION('international standard',
'automotive_design',2009,#1016);
#1016=APPLICATION_CONTEXT(
'Core Data for Automotive Mechanical Design Process');
#1017=PRODUCT_CONTEXT('part definition',#1016,'mechanical');
#1018=PRODUCT('2026-09-11-18-16-40-447','Bottom case',$,(#1017));
#1019=PRESENTATION_STYLE_ASSIGNMENT((#1020));
#1020=SURFACE_STYLE_USAGE(.BOTH.,#1021);
#1021=SURFACE_SIDE_STYLE('',(#1022));
#1022=SURFACE_STYLE_FILL_AREA(#1023);
#1023=FILL_AREA_STYLE('Steel - Satin',(#1024));
#1024=FILL_AREA_STYLE_COLOUR('Steel - Satin',#1025);
#1025=COLOUR_RGB('Steel - Satin',0.627450980392157,0.627450980392157,0.627450980392157);
ENDSEC;
END-ISO-10303-21;
