ISO-10303-21;
HEADER;
/* Generated by software containing ST-Developer
 * from STEP Tools, Inc. (www.steptools.com) 
 */

FILE_DESCRIPTION(
/* description */ (''),
/* implementation_level */ '2;1');

FILE_NAME(
/* name */ 'Top case.step',
/* time_stamp */ '2026-09-12T12:46:24+05:30',
/* author */ (''),
/* organization */ (''),
/* preprocessor_version */ 'ST-DEVELOPER v20.2',
/* originating_system */ 'Autodesk Translation Framework v15.15.0.0',
/* authorisation */ '');

FILE_SCHEMA (('AUTOMOTIVE_DESIGN { 1 0 10303 214 3 1 1 }'));
ENDSEC;

DATA;
#10=MECHANICAL_DESIGN_GEOMETRIC_PRESENTATION_REPRESENTATION('',(#13),#776);
#11=SHAPE_REPRESENTATION_RELATIONSHIP('SRR','None',#783,#12);
#12=ADVANCED_BREP_SHAPE_REPRESENTATION('',(#14),#775);
#13=STYLED_ITEM('',(#792),#14);
#14=MANIFOLD_SOLID_BREP('Body3',#472);
#15=FACE_BOUND('',#73,.T.);
#16=FACE_BOUND('',#85,.T.);
#17=FACE_BOUND('',#86,.T.);
#18=FACE_BOUND('',#87,.T.);
#19=FACE_BOUND('',#89,.T.);
#20=FACE_BOUND('',#90,.T.);
#21=FACE_BOUND('',#91,.T.);
#22=CIRCLE('',#495,3.45);
#23=CIRCLE('',#496,3.45);
#24=CIRCLE('',#498,2.5);
#25=CIRCLE('',#499,2.5);
#26=CIRCLE('',#502,2.5);
#27=CIRCLE('',#503,2.5);
#28=CIRCLE('',#504,2.5);
#29=CIRCLE('',#506,2.5);
#30=CIRCLE('',#509,2.5);
#31=CIRCLE('',#512,2.5);
#32=CYLINDRICAL_SURFACE('',#494,3.45);
#33=CYLINDRICAL_SURFACE('',#497,2.5);
#34=CYLINDRICAL_SURFACE('',#505,2.5);
#35=CYLINDRICAL_SURFACE('',#508,2.5);
#36=CYLINDRICAL_SURFACE('',#511,2.5);
#37=FACE_OUTER_BOUND('',#61,.T.);
#38=FACE_OUTER_BOUND('',#62,.T.);
#39=FACE_OUTER_BOUND('',#63,.T.);
#40=FACE_OUTER_BOUND('',#64,.T.);
#41=FACE_OUTER_BOUND('',#65,.T.);
#42=FACE_OUTER_BOUND('',#66,.T.);
#43=FACE_OUTER_BOUND('',#67,.T.);
#44=FACE_OUTER_BOUND('',#68,.T.);
#45=FACE_OUTER_BOUND('',#69,.T.);
#46=FACE_OUTER_BOUND('',#70,.T.);
#47=FACE_OUTER_BOUND('',#71,.T.);
#48=FACE_OUTER_BOUND('',#72,.T.);
#49=FACE_OUTER_BOUND('',#74,.T.);
#50=FACE_OUTER_BOUND('',#75,.T.);
#51=FACE_OUTER_BOUND('',#76,.T.);
#52=FACE_OUTER_BOUND('',#77,.T.);
#53=FACE_OUTER_BOUND('',#78,.T.);
#54=FACE_OUTER_BOUND('',#79,.T.);
#55=FACE_OUTER_BOUND('',#80,.T.);
#56=FACE_OUTER_BOUND('',#81,.T.);
#57=FACE_OUTER_BOUND('',#82,.T.);
#58=FACE_OUTER_BOUND('',#83,.T.);
#59=FACE_OUTER_BOUND('',#84,.T.);
#60=FACE_OUTER_BOUND('',#88,.T.);
#61=EDGE_LOOP('',(#303,#304,#305,#306));
#62=EDGE_LOOP('',(#307,#308,#309,#310));
#63=EDGE_LOOP('',(#311,#312,#313,#314));
#64=EDGE_LOOP('',(#315,#316,#317,#318));
#65=EDGE_LOOP('',(#319,#320,#321,#322));
#66=EDGE_LOOP('',(#323,#324,#325,#326));
#67=EDGE_LOOP('',(#327,#328,#329,#330));
#68=EDGE_LOOP('',(#331,#332,#333,#334));
#69=EDGE_LOOP('',(#335,#336,#337,#338));
#70=EDGE_LOOP('',(#339,#340,#341,#342));
#71=EDGE_LOOP('',(#343,#344,#345,#346));
#72=EDGE_LOOP('',(#347,#348,#349,#350,#351,#352,#353,#354));
#73=EDGE_LOOP('',(#355,#356,#357,#358));
#74=EDGE_LOOP('',(#359,#360,#361,#362));
#75=EDGE_LOOP('',(#363,#364,#365,#366));
#76=EDGE_LOOP('',(#367,#368,#369,#370));
#77=EDGE_LOOP('',(#371,#372,#373,#374));
#78=EDGE_LOOP('',(#375,#376,#377,#378));
#79=EDGE_LOOP('',(#379,#380,#381,#382));
#80=EDGE_LOOP('',(#383,#384,#385,#386));
#81=EDGE_LOOP('',(#387,#388,#389,#390));
#82=EDGE_LOOP('',(#391,#392,#393,#394));
#83=EDGE_LOOP('',(#395,#396,#397,#398));
#84=EDGE_LOOP('',(#399,#400,#401,#402,#403,#404,#405,#406));
#85=EDGE_LOOP('',(#407,#408,#409,#410));
#86=EDGE_LOOP('',(#411,#412,#413,#414));
#87=EDGE_LOOP('',(#415));
#88=EDGE_LOOP('',(#416,#417,#418,#419));
#89=EDGE_LOOP('',(#420,#421,#422,#423));
#90=EDGE_LOOP('',(#424,#425,#426,#427));
#91=EDGE_LOOP('',(#428));
#92=LINE('',#647,#145);
#93=LINE('',#649,#146);
#94=LINE('',#651,#147);
#95=LINE('',#652,#148);
#96=LINE('',#655,#149);
#97=LINE('',#657,#150);
#98=LINE('',#658,#151);
#99=LINE('',#661,#152);
#100=LINE('',#663,#153);
#101=LINE('',#664,#154);
#102=LINE('',#666,#155);
#103=LINE('',#667,#156);
#104=LINE('',#671,#157);
#105=LINE('',#673,#158);
#106=LINE('',#675,#159);
#107=LINE('',#676,#160);
#108=LINE('',#679,#161);
#109=LINE('',#681,#162);
#110=LINE('',#682,#163);
#111=LINE('',#685,#164);
#112=LINE('',#687,#165);
#113=LINE('',#688,#166);
#114=LINE('',#690,#167);
#115=LINE('',#691,#168);
#116=LINE('',#696,#169);
#117=LINE('',#703,#170);
#118=LINE('',#706,#171);
#119=LINE('',#709,#172);
#120=LINE('',#711,#173);
#121=LINE('',#712,#174);
#122=LINE('',#715,#175);
#123=LINE('',#719,#176);
#124=LINE('',#723,#177);
#125=LINE('',#727,#178);
#126=LINE('',#729,#179);
#127=LINE('',#731,#180);
#128=LINE('',#732,#181);
#129=LINE('',#736,#182);
#130=LINE('',#739,#183);
#131=LINE('',#740,#184);
#132=LINE('',#743,#185);
#133=LINE('',#747,#186);
#134=LINE('',#748,#187);
#135=LINE('',#752,#188);
#136=LINE('',#754,#189);
#137=LINE('',#758,#190);
#138=LINE('',#759,#191);
#139=LINE('',#760,#192);
#140=LINE('',#763,#193);
#141=LINE('',#764,#194);
#142=LINE('',#767,#195);
#143=LINE('',#768,#196);
#144=LINE('',#770,#197);
#145=VECTOR('',#524,10.);
#146=VECTOR('',#525,10.);
#147=VECTOR('',#526,10.);
#148=VECTOR('',#527,10.);
#149=VECTOR('',#530,10.);
#150=VECTOR('',#531,10.);
#151=VECTOR('',#532,10.);
#152=VECTOR('',#535,10.);
#153=VECTOR('',#536,10.);
#154=VECTOR('',#537,10.);
#155=VECTOR('',#540,10.);
#156=VECTOR('',#541,10.);
#157=VECTOR('',#544,10.);
#158=VECTOR('',#545,10.);
#159=VECTOR('',#546,10.);
#160=VECTOR('',#547,10.);
#161=VECTOR('',#550,10.);
#162=VECTOR('',#551,10.);
#163=VECTOR('',#552,10.);
#164=VECTOR('',#555,10.);
#165=VECTOR('',#556,10.);
#166=VECTOR('',#557,10.);
#167=VECTOR('',#560,10.);
#168=VECTOR('',#561,10.);
#169=VECTOR('',#566,3.45);
#170=VECTOR('',#573,10.);
#171=VECTOR('',#576,10.);
#172=VECTOR('',#579,10.);
#173=VECTOR('',#580,10.);
#174=VECTOR('',#581,10.);
#175=VECTOR('',#584,10.);
#176=VECTOR('',#587,10.);
#177=VECTOR('',#590,10.);
#178=VECTOR('',#593,10.);
#179=VECTOR('',#594,10.);
#180=VECTOR('',#595,10.);
#181=VECTOR('',#596,10.);
#182=VECTOR('',#601,10.);
#183=VECTOR('',#604,10.);
#184=VECTOR('',#605,10.);
#185=VECTOR('',#608,10.);
#186=VECTOR('',#613,10.);
#187=VECTOR('',#614,10.);
#188=VECTOR('',#619,10.);
#189=VECTOR('',#622,10.);
#190=VECTOR('',#625,10.);
#191=VECTOR('',#626,10.);
#192=VECTOR('',#627,10.);
#193=VECTOR('',#630,10.);
#194=VECTOR('',#631,10.);
#195=VECTOR('',#634,10.);
#196=VECTOR('',#635,10.);
#197=VECTOR('',#638,10.);
#198=VERTEX_POINT('',#645);
#199=VERTEX_POINT('',#646);
#200=VERTEX_POINT('',#648);
#201=VERTEX_POINT('',#650);
#202=VERTEX_POINT('',#654);
#203=VERTEX_POINT('',#656);
#204=VERTEX_POINT('',#660);
#205=VERTEX_POINT('',#662);
#206=VERTEX_POINT('',#669);
#207=VERTEX_POINT('',#670);
#208=VERTEX_POINT('',#672);
#209=VERTEX_POINT('',#674);
#210=VERTEX_POINT('',#678);
#211=VERTEX_POINT('',#680);
#212=VERTEX_POINT('',#684);
#213=VERTEX_POINT('',#686);
#214=VERTEX_POINT('',#693);
#215=VERTEX_POINT('',#695);
#216=VERTEX_POINT('',#699);
#217=VERTEX_POINT('',#700);
#218=VERTEX_POINT('',#702);
#219=VERTEX_POINT('',#704);
#220=VERTEX_POINT('',#708);
#221=VERTEX_POINT('',#710);
#222=VERTEX_POINT('',#714);
#223=VERTEX_POINT('',#716);
#224=VERTEX_POINT('',#718);
#225=VERTEX_POINT('',#720);
#226=VERTEX_POINT('',#722);
#227=VERTEX_POINT('',#725);
#228=VERTEX_POINT('',#726);
#229=VERTEX_POINT('',#728);
#230=VERTEX_POINT('',#730);
#231=VERTEX_POINT('',#734);
#232=VERTEX_POINT('',#738);
#233=VERTEX_POINT('',#742);
#234=VERTEX_POINT('',#746);
#235=VERTEX_POINT('',#750);
#236=VERTEX_POINT('',#756);
#237=VERTEX_POINT('',#757);
#238=VERTEX_POINT('',#762);
#239=VERTEX_POINT('',#766);
#240=EDGE_CURVE('',#198,#199,#92,.T.);
#241=EDGE_CURVE('',#198,#200,#93,.T.);
#242=EDGE_CURVE('',#201,#200,#94,.T.);
#243=EDGE_CURVE('',#199,#201,#95,.T.);
#244=EDGE_CURVE('',#202,#198,#96,.T.);
#245=EDGE_CURVE('',#202,#203,#97,.T.);
#246=EDGE_CURVE('',#200,#203,#98,.T.);
#247=EDGE_CURVE('',#204,#202,#99,.T.);
#248=EDGE_CURVE('',#204,#205,#100,.T.);
#249=EDGE_CURVE('',#203,#205,#101,.T.);
#250=EDGE_CURVE('',#199,#204,#102,.T.);
#251=EDGE_CURVE('',#205,#201,#103,.T.);
#252=EDGE_CURVE('',#206,#207,#104,.T.);
#253=EDGE_CURVE('',#206,#208,#105,.T.);
#254=EDGE_CURVE('',#209,#208,#106,.T.);
#255=EDGE_CURVE('',#207,#209,#107,.T.);
#256=EDGE_CURVE('',#210,#206,#108,.T.);
#257=EDGE_CURVE('',#210,#211,#109,.T.);
#258=EDGE_CURVE('',#208,#211,#110,.T.);
#259=EDGE_CURVE('',#212,#210,#111,.T.);
#260=EDGE_CURVE('',#212,#213,#112,.T.);
#261=EDGE_CURVE('',#211,#213,#113,.T.);
#262=EDGE_CURVE('',#207,#212,#114,.T.);
#263=EDGE_CURVE('',#213,#209,#115,.T.);
#264=EDGE_CURVE('',#214,#214,#22,.T.);
#265=EDGE_CURVE('',#214,#215,#116,.T.);
#266=EDGE_CURVE('',#215,#215,#23,.T.);
#267=EDGE_CURVE('',#216,#217,#24,.T.);
#268=EDGE_CURVE('',#217,#218,#117,.T.);
#269=EDGE_CURVE('',#218,#219,#25,.T.);
#270=EDGE_CURVE('',#219,#216,#118,.T.);
#271=EDGE_CURVE('',#220,#219,#119,.T.);
#272=EDGE_CURVE('',#221,#220,#120,.T.);
#273=EDGE_CURVE('',#216,#221,#121,.T.);
#274=EDGE_CURVE('',#218,#222,#122,.T.);
#275=EDGE_CURVE('',#223,#222,#26,.T.);
#276=EDGE_CURVE('',#223,#224,#123,.T.);
#277=EDGE_CURVE('',#225,#224,#27,.T.);
#278=EDGE_CURVE('',#225,#226,#124,.T.);
#279=EDGE_CURVE('',#220,#226,#28,.T.);
#280=EDGE_CURVE('',#227,#228,#125,.T.);
#281=EDGE_CURVE('',#228,#229,#126,.T.);
#282=EDGE_CURVE('',#229,#230,#127,.T.);
#283=EDGE_CURVE('',#230,#227,#128,.T.);
#284=EDGE_CURVE('',#231,#221,#29,.T.);
#285=EDGE_CURVE('',#226,#231,#129,.T.);
#286=EDGE_CURVE('',#232,#225,#130,.T.);
#287=EDGE_CURVE('',#231,#232,#131,.T.);
#288=EDGE_CURVE('',#224,#233,#132,.T.);
#289=EDGE_CURVE('',#233,#232,#30,.T.);
#290=EDGE_CURVE('',#234,#223,#133,.T.);
#291=EDGE_CURVE('',#233,#234,#134,.T.);
#292=EDGE_CURVE('',#235,#234,#31,.T.);
#293=EDGE_CURVE('',#222,#235,#135,.T.);
#294=EDGE_CURVE('',#235,#217,#136,.T.);
#295=EDGE_CURVE('',#236,#237,#137,.T.);
#296=EDGE_CURVE('',#236,#227,#138,.T.);
#297=EDGE_CURVE('',#237,#230,#139,.T.);
#298=EDGE_CURVE('',#237,#238,#140,.T.);
#299=EDGE_CURVE('',#238,#229,#141,.T.);
#300=EDGE_CURVE('',#238,#239,#142,.T.);
#301=EDGE_CURVE('',#239,#228,#143,.T.);
#302=EDGE_CURVE('',#239,#236,#144,.T.);
#303=ORIENTED_EDGE('',*,*,#240,.F.);
#304=ORIENTED_EDGE('',*,*,#241,.T.);
#305=ORIENTED_EDGE('',*,*,#242,.F.);
#306=ORIENTED_EDGE('',*,*,#243,.F.);
#307=ORIENTED_EDGE('',*,*,#244,.F.);
#308=ORIENTED_EDGE('',*,*,#245,.T.);
#309=ORIENTED_EDGE('',*,*,#246,.F.);
#310=ORIENTED_EDGE('',*,*,#241,.F.);
#311=ORIENTED_EDGE('',*,*,#247,.F.);
#312=ORIENTED_EDGE('',*,*,#248,.T.);
#313=ORIENTED_EDGE('',*,*,#249,.F.);
#314=ORIENTED_EDGE('',*,*,#245,.F.);
#315=ORIENTED_EDGE('',*,*,#250,.F.);
#316=ORIENTED_EDGE('',*,*,#243,.T.);
#317=ORIENTED_EDGE('',*,*,#251,.F.);
#318=ORIENTED_EDGE('',*,*,#248,.F.);
#319=ORIENTED_EDGE('',*,*,#252,.F.);
#320=ORIENTED_EDGE('',*,*,#253,.T.);
#321=ORIENTED_EDGE('',*,*,#254,.F.);
#322=ORIENTED_EDGE('',*,*,#255,.F.);
#323=ORIENTED_EDGE('',*,*,#256,.F.);
#324=ORIENTED_EDGE('',*,*,#257,.T.);
#325=ORIENTED_EDGE('',*,*,#258,.F.);
#326=ORIENTED_EDGE('',*,*,#253,.F.);
#327=ORIENTED_EDGE('',*,*,#259,.F.);
#328=ORIENTED_EDGE('',*,*,#260,.T.);
#329=ORIENTED_EDGE('',*,*,#261,.F.);
#330=ORIENTED_EDGE('',*,*,#257,.F.);
#331=ORIENTED_EDGE('',*,*,#262,.F.);
#332=ORIENTED_EDGE('',*,*,#255,.T.);
#333=ORIENTED_EDGE('',*,*,#263,.F.);
#334=ORIENTED_EDGE('',*,*,#260,.F.);
#335=ORIENTED_EDGE('',*,*,#264,.F.);
#336=ORIENTED_EDGE('',*,*,#265,.T.);
#337=ORIENTED_EDGE('',*,*,#266,.F.);
#338=ORIENTED_EDGE('',*,*,#265,.F.);
#339=ORIENTED_EDGE('',*,*,#267,.T.);
#340=ORIENTED_EDGE('',*,*,#268,.T.);
#341=ORIENTED_EDGE('',*,*,#269,.T.);
#342=ORIENTED_EDGE('',*,*,#270,.T.);
#343=ORIENTED_EDGE('',*,*,#270,.F.);
#344=ORIENTED_EDGE('',*,*,#271,.F.);
#345=ORIENTED_EDGE('',*,*,#272,.F.);
#346=ORIENTED_EDGE('',*,*,#273,.F.);
#347=ORIENTED_EDGE('',*,*,#269,.F.);
#348=ORIENTED_EDGE('',*,*,#274,.T.);
#349=ORIENTED_EDGE('',*,*,#275,.F.);
#350=ORIENTED_EDGE('',*,*,#276,.T.);
#351=ORIENTED_EDGE('',*,*,#277,.F.);
#352=ORIENTED_EDGE('',*,*,#278,.T.);
#353=ORIENTED_EDGE('',*,*,#279,.F.);
#354=ORIENTED_EDGE('',*,*,#271,.T.);
#355=ORIENTED_EDGE('',*,*,#280,.T.);
#356=ORIENTED_EDGE('',*,*,#281,.T.);
#357=ORIENTED_EDGE('',*,*,#282,.T.);
#358=ORIENTED_EDGE('',*,*,#283,.T.);
#359=ORIENTED_EDGE('',*,*,#284,.T.);
#360=ORIENTED_EDGE('',*,*,#272,.T.);
#361=ORIENTED_EDGE('',*,*,#279,.T.);
#362=ORIENTED_EDGE('',*,*,#285,.T.);
#363=ORIENTED_EDGE('',*,*,#285,.F.);
#364=ORIENTED_EDGE('',*,*,#278,.F.);
#365=ORIENTED_EDGE('',*,*,#286,.F.);
#366=ORIENTED_EDGE('',*,*,#287,.F.);
#367=ORIENTED_EDGE('',*,*,#277,.T.);
#368=ORIENTED_EDGE('',*,*,#288,.T.);
#369=ORIENTED_EDGE('',*,*,#289,.T.);
#370=ORIENTED_EDGE('',*,*,#286,.T.);
#371=ORIENTED_EDGE('',*,*,#288,.F.);
#372=ORIENTED_EDGE('',*,*,#276,.F.);
#373=ORIENTED_EDGE('',*,*,#290,.F.);
#374=ORIENTED_EDGE('',*,*,#291,.F.);
#375=ORIENTED_EDGE('',*,*,#292,.T.);
#376=ORIENTED_EDGE('',*,*,#290,.T.);
#377=ORIENTED_EDGE('',*,*,#275,.T.);
#378=ORIENTED_EDGE('',*,*,#293,.T.);
#379=ORIENTED_EDGE('',*,*,#268,.F.);
#380=ORIENTED_EDGE('',*,*,#294,.F.);
#381=ORIENTED_EDGE('',*,*,#293,.F.);
#382=ORIENTED_EDGE('',*,*,#274,.F.);
#383=ORIENTED_EDGE('',*,*,#295,.F.);
#384=ORIENTED_EDGE('',*,*,#296,.T.);
#385=ORIENTED_EDGE('',*,*,#283,.F.);
#386=ORIENTED_EDGE('',*,*,#297,.F.);
#387=ORIENTED_EDGE('',*,*,#298,.F.);
#388=ORIENTED_EDGE('',*,*,#297,.T.);
#389=ORIENTED_EDGE('',*,*,#282,.F.);
#390=ORIENTED_EDGE('',*,*,#299,.F.);
#391=ORIENTED_EDGE('',*,*,#300,.F.);
#392=ORIENTED_EDGE('',*,*,#299,.T.);
#393=ORIENTED_EDGE('',*,*,#281,.F.);
#394=ORIENTED_EDGE('',*,*,#301,.F.);
#395=ORIENTED_EDGE('',*,*,#302,.F.);
#396=ORIENTED_EDGE('',*,*,#301,.T.);
#397=ORIENTED_EDGE('',*,*,#280,.F.);
#398=ORIENTED_EDGE('',*,*,#296,.F.);
#399=ORIENTED_EDGE('',*,*,#267,.F.);
#400=ORIENTED_EDGE('',*,*,#273,.T.);
#401=ORIENTED_EDGE('',*,*,#284,.F.);
#402=ORIENTED_EDGE('',*,*,#287,.T.);
#403=ORIENTED_EDGE('',*,*,#289,.F.);
#404=ORIENTED_EDGE('',*,*,#291,.T.);
#405=ORIENTED_EDGE('',*,*,#292,.F.);
#406=ORIENTED_EDGE('',*,*,#294,.T.);
#407=ORIENTED_EDGE('',*,*,#242,.T.);
#408=ORIENTED_EDGE('',*,*,#246,.T.);
#409=ORIENTED_EDGE('',*,*,#249,.T.);
#410=ORIENTED_EDGE('',*,*,#251,.T.);
#411=ORIENTED_EDGE('',*,*,#254,.T.);
#412=ORIENTED_EDGE('',*,*,#258,.T.);
#413=ORIENTED_EDGE('',*,*,#261,.T.);
#414=ORIENTED_EDGE('',*,*,#263,.T.);
#415=ORIENTED_EDGE('',*,*,#266,.T.);
#416=ORIENTED_EDGE('',*,*,#295,.T.);
#417=ORIENTED_EDGE('',*,*,#298,.T.);
#418=ORIENTED_EDGE('',*,*,#300,.T.);
#419=ORIENTED_EDGE('',*,*,#302,.T.);
#420=ORIENTED_EDGE('',*,*,#240,.T.);
#421=ORIENTED_EDGE('',*,*,#250,.T.);
#422=ORIENTED_EDGE('',*,*,#247,.T.);
#423=ORIENTED_EDGE('',*,*,#244,.T.);
#424=ORIENTED_EDGE('',*,*,#252,.T.);
#425=ORIENTED_EDGE('',*,*,#262,.T.);
#426=ORIENTED_EDGE('',*,*,#259,.T.);
#427=ORIENTED_EDGE('',*,*,#256,.T.);
#428=ORIENTED_EDGE('',*,*,#264,.T.);
#429=PLANE('',#486);
#430=PLANE('',#487);
#431=PLANE('',#488);
#432=PLANE('',#489);
#433=PLANE('',#490);
#434=PLANE('',#491);
#435=PLANE('',#492);
#436=PLANE('',#493);
#437=PLANE('',#500);
#438=PLANE('',#501);
#439=PLANE('',#507);
#440=PLANE('',#510);
#441=PLANE('',#513);
#442=PLANE('',#514);
#443=PLANE('',#515);
#444=PLANE('',#516);
#445=PLANE('',#517);
#446=PLANE('',#518);
#447=PLANE('',#519);
#448=ADVANCED_FACE('',(#37),#429,.F.);
#449=ADVANCED_FACE('',(#38),#430,.F.);
#450=ADVANCED_FACE('',(#39),#431,.F.);
#451=ADVANCED_FACE('',(#40),#432,.F.);
#452=ADVANCED_FACE('',(#41),#433,.F.);
#453=ADVANCED_FACE('',(#42),#434,.F.);
#454=ADVANCED_FACE('',(#43),#435,.F.);
#455=ADVANCED_FACE('',(#44),#436,.F.);
#456=ADVANCED_FACE('',(#45),#32,.F.);
#457=ADVANCED_FACE('',(#46),#33,.T.);
#458=ADVANCED_FACE('',(#47),#437,.T.);
#459=ADVANCED_FACE('',(#48,#15),#438,.T.);
#460=ADVANCED_FACE('',(#49),#34,.T.);
#461=ADVANCED_FACE('',(#50),#439,.T.);
#462=ADVANCED_FACE('',(#51),#35,.T.);
#463=ADVANCED_FACE('',(#52),#440,.T.);
#464=ADVANCED_FACE('',(#53),#36,.T.);
#465=ADVANCED_FACE('',(#54),#441,.T.);
#466=ADVANCED_FACE('',(#55),#442,.T.);
#467=ADVANCED_FACE('',(#56),#443,.T.);
#468=ADVANCED_FACE('',(#57),#444,.T.);
#469=ADVANCED_FACE('',(#58),#445,.T.);
#470=ADVANCED_FACE('',(#59,#16,#17,#18),#446,.T.);
#471=ADVANCED_FACE('',(#60,#19,#20,#21),#447,.F.);
#472=CLOSED_SHELL('',(#448,#449,#450,#451,#452,#453,#454,#455,#456,#457,
#458,#459,#460,#461,#462,#463,#464,#465,#466,#467,#468,#469,#470,#471));
#473=DERIVED_UNIT_ELEMENT(#475,1.);
#474=DERIVED_UNIT_ELEMENT(#778,-3.);
#475=(
MASS_UNIT()
NAMED_UNIT(*)
SI_UNIT(.KILO.,.GRAM.)
);
#476=DERIVED_UNIT((#473,#474));
#477=MEASURE_REPRESENTATION_ITEM('density measure',
POSITIVE_RATIO_MEASURE(7850.),#476);
#478=PROPERTY_DEFINITION_REPRESENTATION(#483,#480);
#479=PROPERTY_DEFINITION_REPRESENTATION(#484,#481);
#480=REPRESENTATION('material name',(#482),#775);
#481=REPRESENTATION('density',(#477),#775);
#482=DESCRIPTIVE_REPRESENTATION_ITEM('Steel','Steel');
#483=PROPERTY_DEFINITION('material property','material name',#785);
#484=PROPERTY_DEFINITION('material property','density of part',#785);
#485=AXIS2_PLACEMENT_3D('',#643,#520,#521);
#486=AXIS2_PLACEMENT_3D('',#644,#522,#523);
#487=AXIS2_PLACEMENT_3D('',#653,#528,#529);
#488=AXIS2_PLACEMENT_3D('',#659,#533,#534);
#489=AXIS2_PLACEMENT_3D('',#665,#538,#539);
#490=AXIS2_PLACEMENT_3D('',#668,#542,#543);
#491=AXIS2_PLACEMENT_3D('',#677,#548,#549);
#492=AXIS2_PLACEMENT_3D('',#683,#553,#554);
#493=AXIS2_PLACEMENT_3D('',#689,#558,#559);
#494=AXIS2_PLACEMENT_3D('',#692,#562,#563);
#495=AXIS2_PLACEMENT_3D('',#694,#564,#565);
#496=AXIS2_PLACEMENT_3D('',#697,#567,#568);
#497=AXIS2_PLACEMENT_3D('',#698,#569,#570);
#498=AXIS2_PLACEMENT_3D('',#701,#571,#572);
#499=AXIS2_PLACEMENT_3D('',#705,#574,#575);
#500=AXIS2_PLACEMENT_3D('',#707,#577,#578);
#501=AXIS2_PLACEMENT_3D('',#713,#582,#583);
#502=AXIS2_PLACEMENT_3D('',#717,#585,#586);
#503=AXIS2_PLACEMENT_3D('',#721,#588,#589);
#504=AXIS2_PLACEMENT_3D('',#724,#591,#592);
#505=AXIS2_PLACEMENT_3D('',#733,#597,#598);
#506=AXIS2_PLACEMENT_3D('',#735,#599,#600);
#507=AXIS2_PLACEMENT_3D('',#737,#602,#603);
#508=AXIS2_PLACEMENT_3D('',#741,#606,#607);
#509=AXIS2_PLACEMENT_3D('',#744,#609,#610);
#510=AXIS2_PLACEMENT_3D('',#745,#611,#612);
#511=AXIS2_PLACEMENT_3D('',#749,#615,#616);
#512=AXIS2_PLACEMENT_3D('',#751,#617,#618);
#513=AXIS2_PLACEMENT_3D('',#753,#620,#621);
#514=AXIS2_PLACEMENT_3D('',#755,#623,#624);
#515=AXIS2_PLACEMENT_3D('',#761,#628,#629);
#516=AXIS2_PLACEMENT_3D('',#765,#632,#633);
#517=AXIS2_PLACEMENT_3D('',#769,#636,#637);
#518=AXIS2_PLACEMENT_3D('',#771,#639,#640);
#519=AXIS2_PLACEMENT_3D('',#772,#641,#642);
#520=DIRECTION('axis',(0.,0.,1.));
#521=DIRECTION('refdir',(1.,0.,0.));
#522=DIRECTION('center_axis',(-1.,0.,0.));
#523=DIRECTION('ref_axis',(0.,-1.,0.));
#524=DIRECTION('',(0.,-1.,0.));
#525=DIRECTION('',(0.,0.,1.));
#526=DIRECTION('',(0.,1.,0.));
#527=DIRECTION('',(0.,0.,1.));
#528=DIRECTION('center_axis',(0.,1.,0.));
#529=DIRECTION('ref_axis',(-1.,0.,0.));
#530=DIRECTION('',(-1.,0.,0.));
#531=DIRECTION('',(0.,0.,1.));
#532=DIRECTION('',(1.,0.,0.));
#533=DIRECTION('center_axis',(1.,0.,0.));
#534=DIRECTION('ref_axis',(0.,1.,0.));
#535=DIRECTION('',(0.,1.,0.));
#536=DIRECTION('',(0.,0.,1.));
#537=DIRECTION('',(0.,-1.,0.));
#538=DIRECTION('center_axis',(0.,-1.,0.));
#539=DIRECTION('ref_axis',(1.,0.,0.));
#540=DIRECTION('',(1.,0.,0.));
#541=DIRECTION('',(-1.,0.,0.));
#542=DIRECTION('center_axis',(-1.,0.,0.));
#543=DIRECTION('ref_axis',(0.,-1.,0.));
#544=DIRECTION('',(0.,-1.,0.));
#545=DIRECTION('',(0.,0.,1.));
#546=DIRECTION('',(0.,1.,0.));
#547=DIRECTION('',(0.,0.,1.));
#548=DIRECTION('center_axis',(0.,1.,0.));
#549=DIRECTION('ref_axis',(-1.,0.,0.));
#550=DIRECTION('',(-1.,0.,0.));
#551=DIRECTION('',(0.,0.,1.));
#552=DIRECTION('',(1.,0.,0.));
#553=DIRECTION('center_axis',(1.,0.,0.));
#554=DIRECTION('ref_axis',(0.,1.,0.));
#555=DIRECTION('',(0.,1.,0.));
#556=DIRECTION('',(0.,0.,1.));
#557=DIRECTION('',(0.,-1.,0.));
#558=DIRECTION('center_axis',(0.,-1.,0.));
#559=DIRECTION('ref_axis',(1.,0.,0.));
#560=DIRECTION('',(1.,0.,0.));
#561=DIRECTION('',(-1.,0.,0.));
#562=DIRECTION('center_axis',(0.,0.,1.));
#563=DIRECTION('ref_axis',(1.,0.,0.));
#564=DIRECTION('center_axis',(0.,0.,1.));
#565=DIRECTION('ref_axis',(1.,0.,0.));
#566=DIRECTION('',(0.,0.,1.));
#567=DIRECTION('center_axis',(0.,0.,-1.));
#568=DIRECTION('ref_axis',(1.,0.,0.));
#569=DIRECTION('center_axis',(0.,0.,1.));
#570=DIRECTION('ref_axis',(0.707106781186547,0.707106781186547,0.));
#571=DIRECTION('center_axis',(0.,0.,-1.));
#572=DIRECTION('ref_axis',(0.707106781186547,0.707106781186547,0.));
#573=DIRECTION('',(0.,0.,-1.));
#574=DIRECTION('center_axis',(0.,0.,1.));
#575=DIRECTION('ref_axis',(0.707106781186547,0.707106781186547,0.));
#576=DIRECTION('',(0.,0.,1.));
#577=DIRECTION('center_axis',(-3.21946498166224E-33,1.,0.));
#578=DIRECTION('ref_axis',(-1.,-3.21946498166224E-33,0.));
#579=DIRECTION('',(1.,0.,0.));
#580=DIRECTION('',(0.,0.,-1.));
#581=DIRECTION('',(-1.,-3.21946498166224E-33,0.));
#582=DIRECTION('center_axis',(0.,0.,-1.));
#583=DIRECTION('ref_axis',(-1.,0.,0.));
#584=DIRECTION('',(0.,-1.,0.));
#585=DIRECTION('center_axis',(0.,0.,1.));
#586=DIRECTION('ref_axis',(0.707106781186547,-0.707106781186547,0.));
#587=DIRECTION('',(-1.,0.,0.));
#588=DIRECTION('center_axis',(0.,0.,1.));
#589=DIRECTION('ref_axis',(-0.707106781186547,-0.707106781186547,0.));
#590=DIRECTION('',(0.,1.,0.));
#591=DIRECTION('center_axis',(0.,0.,1.));
#592=DIRECTION('ref_axis',(-0.707106781186547,0.707106781186547,0.));
#593=DIRECTION('',(0.,1.,0.));
#594=DIRECTION('',(-1.,0.,0.));
#595=DIRECTION('',(0.,-1.,0.));
#596=DIRECTION('',(1.,0.,0.));
#597=DIRECTION('center_axis',(0.,0.,1.));
#598=DIRECTION('ref_axis',(-0.707106781186547,0.707106781186547,0.));
#599=DIRECTION('center_axis',(0.,0.,-1.));
#600=DIRECTION('ref_axis',(-0.707106781186547,0.707106781186547,0.));
#601=DIRECTION('',(0.,0.,1.));
#602=DIRECTION('center_axis',(-1.,-3.31852544263647E-33,0.));
#603=DIRECTION('ref_axis',(3.31852544263647E-33,-1.,0.));
#604=DIRECTION('',(0.,0.,-1.));
#605=DIRECTION('',(3.31852544263647E-33,-1.,0.));
#606=DIRECTION('center_axis',(0.,0.,-1.));
#607=DIRECTION('ref_axis',(-0.707106781186547,-0.707106781186547,0.));
#608=DIRECTION('',(0.,0.,1.));
#609=DIRECTION('center_axis',(0.,0.,-1.));
#610=DIRECTION('ref_axis',(-0.707106781186547,-0.707106781186547,0.));
#611=DIRECTION('center_axis',(0.,-1.,0.));
#612=DIRECTION('ref_axis',(1.,0.,0.));
#613=DIRECTION('',(0.,0.,-1.));
#614=DIRECTION('',(1.,0.,0.));
#615=DIRECTION('center_axis',(0.,0.,1.));
#616=DIRECTION('ref_axis',(0.707106781186547,-0.707106781186547,0.));
#617=DIRECTION('center_axis',(0.,0.,-1.));
#618=DIRECTION('ref_axis',(0.707106781186547,-0.707106781186547,0.));
#619=DIRECTION('',(0.,0.,1.));
#620=DIRECTION('center_axis',(1.,0.,0.));
#621=DIRECTION('ref_axis',(0.,1.,0.));
#622=DIRECTION('',(0.,1.,0.));
#623=DIRECTION('center_axis',(0.,1.,0.));
#624=DIRECTION('ref_axis',(1.,0.,0.));
#625=DIRECTION('',(-1.,0.,0.));
#626=DIRECTION('',(0.,0.,-1.));
#627=DIRECTION('',(0.,0.,-1.));
#628=DIRECTION('center_axis',(1.,0.,0.));
#629=DIRECTION('ref_axis',(0.,-1.,0.));
#630=DIRECTION('',(0.,1.,0.));
#631=DIRECTION('',(0.,0.,-1.));
#632=DIRECTION('center_axis',(0.,-1.,0.));
#633=DIRECTION('ref_axis',(-1.,0.,0.));
#634=DIRECTION('',(1.,0.,0.));
#635=DIRECTION('',(0.,0.,-1.));
#636=DIRECTION('center_axis',(-1.,0.,0.));
#637=DIRECTION('ref_axis',(0.,1.,0.));
#638=DIRECTION('',(0.,-1.,0.));
#639=DIRECTION('center_axis',(0.,0.,1.));
#640=DIRECTION('ref_axis',(1.,0.,0.));
#641=DIRECTION('center_axis',(0.,0.,1.));
#642=DIRECTION('ref_axis',(1.,0.,0.));
#643=CARTESIAN_POINT('',(0.,0.,0.));
#644=CARTESIAN_POINT('Origin',(43.75,-55.05,0.));
#645=CARTESIAN_POINT('',(43.75,-55.05,0.));
#646=CARTESIAN_POINT('',(43.75,-57.87,0.));
#647=CARTESIAN_POINT('',(43.75,-43.775,0.));
#648=CARTESIAN_POINT('',(43.75,-55.05,2.));
#649=CARTESIAN_POINT('',(43.75,-55.05,0.));
#650=CARTESIAN_POINT('',(43.75,-57.87,2.));
#651=CARTESIAN_POINT('',(43.75,-43.775,2.));
#652=CARTESIAN_POINT('',(43.75,-57.87,0.));
#653=CARTESIAN_POINT('Origin',(49.11,-55.05,0.));
#654=CARTESIAN_POINT('',(49.11,-55.05,0.));
#655=CARTESIAN_POINT('',(41.305,-55.05,0.));
#656=CARTESIAN_POINT('',(49.11,-55.05,2.));
#657=CARTESIAN_POINT('',(49.11,-55.05,0.));
#658=CARTESIAN_POINT('',(41.305,-55.05,2.));
#659=CARTESIAN_POINT('Origin',(49.11,-57.87,0.));
#660=CARTESIAN_POINT('',(49.11,-57.87,0.));
#661=CARTESIAN_POINT('',(49.11,-45.185,0.));
#662=CARTESIAN_POINT('',(49.11,-57.87,2.));
#663=CARTESIAN_POINT('',(49.11,-57.87,0.));
#664=CARTESIAN_POINT('',(49.11,-45.185,2.));
#665=CARTESIAN_POINT('Origin',(43.75,-57.87,0.));
#666=CARTESIAN_POINT('',(38.625,-57.87,0.));
#667=CARTESIAN_POINT('',(38.625,-57.87,2.));
#668=CARTESIAN_POINT('Origin',(7.5,-15.,0.));
#669=CARTESIAN_POINT('',(7.5,-15.,0.));
#670=CARTESIAN_POINT('',(7.5,-28.5,0.));
#671=CARTESIAN_POINT('',(7.5,-23.75,0.));
#672=CARTESIAN_POINT('',(7.5,-15.,2.));
#673=CARTESIAN_POINT('',(7.5,-15.,0.));
#674=CARTESIAN_POINT('',(7.5,-28.5,2.));
#675=CARTESIAN_POINT('',(7.5,-23.75,2.));
#676=CARTESIAN_POINT('',(7.5,-28.5,0.));
#677=CARTESIAN_POINT('Origin',(12.,-15.,0.));
#678=CARTESIAN_POINT('',(12.,-15.,0.));
#679=CARTESIAN_POINT('',(22.75,-15.,0.));
#680=CARTESIAN_POINT('',(12.,-15.,2.));
#681=CARTESIAN_POINT('',(12.,-15.,0.));
#682=CARTESIAN_POINT('',(22.75,-15.,2.));
#683=CARTESIAN_POINT('Origin',(12.,-28.5,0.));
#684=CARTESIAN_POINT('',(12.,-28.5,0.));
#685=CARTESIAN_POINT('',(12.,-30.5,0.));
#686=CARTESIAN_POINT('',(12.,-28.5,2.));
#687=CARTESIAN_POINT('',(12.,-28.5,0.));
#688=CARTESIAN_POINT('',(12.,-30.5,2.));
#689=CARTESIAN_POINT('Origin',(7.5,-28.5,0.));
#690=CARTESIAN_POINT('',(20.5,-28.5,0.));
#691=CARTESIAN_POINT('',(20.5,-28.5,2.));
#692=CARTESIAN_POINT('Origin',(13.48,-55.98,0.));
#693=CARTESIAN_POINT('',(10.03,-55.98,0.));
#694=CARTESIAN_POINT('Origin',(13.48,-55.98,0.));
#695=CARTESIAN_POINT('',(10.03,-55.98,2.));
#696=CARTESIAN_POINT('',(10.03,-55.98,0.));
#697=CARTESIAN_POINT('Origin',(13.48,-55.98,2.));
#698=CARTESIAN_POINT('Origin',(64.5,-2.5,0.));
#699=CARTESIAN_POINT('',(64.5,2.07655491317215E-31,2.));
#700=CARTESIAN_POINT('',(67.,-2.5,2.));
#701=CARTESIAN_POINT('Origin',(64.5,-2.5,2.));
#702=CARTESIAN_POINT('',(67.,-2.5,-5.));
#703=CARTESIAN_POINT('',(67.,-2.5,0.));
#704=CARTESIAN_POINT('',(64.5,0.,-5.));
#705=CARTESIAN_POINT('Origin',(64.5,-2.5,-5.));
#706=CARTESIAN_POINT('',(64.5,0.,0.));
#707=CARTESIAN_POINT('Origin',(67.,2.1570415377137E-31,0.));
#708=CARTESIAN_POINT('',(2.5,0.,-5.));
#709=CARTESIAN_POINT('',(0.,0.,-5.));
#710=CARTESIAN_POINT('',(2.5,8.04866245415561E-33,2.));
#711=CARTESIAN_POINT('',(2.5,0.,0.));
#712=CARTESIAN_POINT('',(0.,0.,2.));
#713=CARTESIAN_POINT('Origin',(33.5,-32.5,-5.));
#714=CARTESIAN_POINT('',(67.,-62.5,-5.));
#715=CARTESIAN_POINT('',(67.,0.,-5.));
#716=CARTESIAN_POINT('',(64.5,-65.,-5.));
#717=CARTESIAN_POINT('Origin',(64.5,-62.5,-5.));
#718=CARTESIAN_POINT('',(2.5,-65.,-5.));
#719=CARTESIAN_POINT('',(67.,-65.,-5.));
#720=CARTESIAN_POINT('',(0.,-62.5,-5.));
#721=CARTESIAN_POINT('Origin',(2.5,-62.5,-5.));
#722=CARTESIAN_POINT('',(0.,-2.5,-5.));
#723=CARTESIAN_POINT('',(0.,-65.,-5.));
#724=CARTESIAN_POINT('Origin',(2.5,-2.5,-5.));
#725=CARTESIAN_POINT('',(65.,-63.,-5.));
#726=CARTESIAN_POINT('',(65.,-2.,-5.));
#727=CARTESIAN_POINT('',(65.,2.1570415377137E-31,-5.));
#728=CARTESIAN_POINT('',(2.,-2.,-5.));
#729=CARTESIAN_POINT('',(67.,-2.,-5.));
#730=CARTESIAN_POINT('',(2.,-63.,-5.));
#731=CARTESIAN_POINT('',(2.,0.,-5.));
#732=CARTESIAN_POINT('',(0.,-63.,-5.));
#733=CARTESIAN_POINT('Origin',(2.5,-2.5,0.));
#734=CARTESIAN_POINT('',(8.29631360659117E-33,-2.5,2.));
#735=CARTESIAN_POINT('Origin',(2.5,-2.5,2.));
#736=CARTESIAN_POINT('',(0.,-2.5,0.));
#737=CARTESIAN_POINT('Origin',(0.,0.,0.));
#738=CARTESIAN_POINT('',(2.07407840164779E-31,-62.5,2.));
#739=CARTESIAN_POINT('',(0.,-62.5,0.));
#740=CARTESIAN_POINT('',(2.1570415377137E-31,-65.,2.));
#741=CARTESIAN_POINT('Origin',(2.5,-62.5,0.));
#742=CARTESIAN_POINT('',(2.5,-65.,2.));
#743=CARTESIAN_POINT('',(2.5,-65.,0.));
#744=CARTESIAN_POINT('Origin',(2.5,-62.5,2.));
#745=CARTESIAN_POINT('Origin',(0.,-65.,0.));
#746=CARTESIAN_POINT('',(64.5,-65.,2.));
#747=CARTESIAN_POINT('',(64.5,-65.,0.));
#748=CARTESIAN_POINT('',(67.,-65.,2.));
#749=CARTESIAN_POINT('Origin',(64.5,-62.5,0.));
#750=CARTESIAN_POINT('',(67.,-62.5,2.));
#751=CARTESIAN_POINT('Origin',(64.5,-62.5,2.));
#752=CARTESIAN_POINT('',(67.,-62.5,0.));
#753=CARTESIAN_POINT('Origin',(67.,-65.,0.));
#754=CARTESIAN_POINT('',(67.,2.1570415377137E-31,2.));
#755=CARTESIAN_POINT('Origin',(2.,-63.,0.));
#756=CARTESIAN_POINT('',(65.,-63.,0.));
#757=CARTESIAN_POINT('',(2.,-63.,0.));
#758=CARTESIAN_POINT('',(17.75,-63.,0.));
#759=CARTESIAN_POINT('',(65.,-63.,0.));
#760=CARTESIAN_POINT('',(2.,-63.,0.));
#761=CARTESIAN_POINT('Origin',(2.,-2.,0.));
#762=CARTESIAN_POINT('',(2.,-2.,0.));
#763=CARTESIAN_POINT('',(2.,-17.25,0.));
#764=CARTESIAN_POINT('',(2.,-2.,0.));
#765=CARTESIAN_POINT('Origin',(65.,-2.,0.));
#766=CARTESIAN_POINT('',(65.,-2.,0.));
#767=CARTESIAN_POINT('',(49.25,-2.,0.));
#768=CARTESIAN_POINT('',(65.,-2.,0.));
#769=CARTESIAN_POINT('Origin',(65.,-63.,0.));
#770=CARTESIAN_POINT('',(65.,-47.75,0.));
#771=CARTESIAN_POINT('Origin',(33.5,-32.5,2.));
#772=CARTESIAN_POINT('Origin',(33.5,-32.5,0.));
#773=UNCERTAINTY_MEASURE_WITH_UNIT(LENGTH_MEASURE(0.01),#777,
'DISTANCE_ACCURACY_VALUE',
'Maximum model space distance between geometric entities at asserted c
onnectivities');
#774=UNCERTAINTY_MEASURE_WITH_UNIT(LENGTH_MEASURE(0.01),#777,
'DISTANCE_ACCURACY_VALUE',
'Maximum model space distance between geometric entities at asserted c
onnectivities');
#775=(
GEOMETRIC_REPRESENTATION_CONTEXT(3)
GLOBAL_UNCERTAINTY_ASSIGNED_CONTEXT((#773))
GLOBAL_UNIT_ASSIGNED_CONTEXT((#777,#779,#780))
REPRESENTATION_CONTEXT('','3D')
);
#776=(
GEOMETRIC_REPRESENTATION_CONTEXT(3)
GLOBAL_UNCERTAINTY_ASSIGNED_CONTEXT((#774))
GLOBAL_UNIT_ASSIGNED_CONTEXT((#777,#779,#780))
REPRESENTATION_CONTEXT('','3D')
);
#777=(
LENGTH_UNIT()
NAMED_UNIT(*)
SI_UNIT(.MILLI.,.METRE.)
);
#778=(
LENGTH_UNIT()
NAMED_UNIT(*)
SI_UNIT($,.METRE.)
);
#779=(
NAMED_UNIT(*)
PLANE_ANGLE_UNIT()
SI_UNIT($,.RADIAN.)
);
#780=(
NAMED_UNIT(*)
SI_UNIT($,.STERADIAN.)
SOLID_ANGLE_UNIT()
);
#781=SHAPE_DEFINITION_REPRESENTATION(#782,#783);
#782=PRODUCT_DEFINITION_SHAPE('',$,#785);
#783=SHAPE_REPRESENTATION('',(#485),#775);
#784=PRODUCT_DEFINITION_CONTEXT('part definition',#789,'design');
#785=PRODUCT_DEFINITION('2026-09-12-10-50-31-996','Top case',#786,#784);
#786=PRODUCT_DEFINITION_FORMATION('',$,#791);
#787=PRODUCT_RELATED_PRODUCT_CATEGORY('Top case','Top case',(#791));
#788=APPLICATION_PROTOCOL_DEFINITION('international standard',
'automotive_design',2009,#789);
#789=APPLICATION_CONTEXT(
'Core Data for Automotive Mechanical Design Process');
#790=PRODUCT_CONTEXT('part definition',#789,'mechanical');
#791=PRODUCT('2026-09-12-10-50-31-996','Top case',$,(#790));
#792=PRESENTATION_STYLE_ASSIGNMENT((#793));
#793=SURFACE_STYLE_USAGE(.BOTH.,#794);
#794=SURFACE_SIDE_STYLE('',(#795));
#795=SURFACE_STYLE_FILL_AREA(#796);
#796=FILL_AREA_STYLE('Steel - Satin',(#797));
#797=FILL_AREA_STYLE_COLOUR('Steel - Satin',#798);
#798=COLOUR_RGB('Steel - Satin',0.627450980392157,0.627450980392157,0.627450980392157);
ENDSEC;
END-ISO-10303-21;
